<?xml version="1.0" encoding="utf-8"?>
<xmeml version="4">
   <sequence>
      <duration>0</duration>
      <rate>
         <timebase>30</timebase>
         <ntsc>TRUE</ntsc>
      </rate>
      <name>series02</name>
      <media>
         <video>
            <format>
               <samplecharacteristics>
                  <rate>
                     <timebase>30</timebase>
                  </rate>
                  <width>1280</width>
                  <height>720</height>
                  <pixelaspectratio>square</pixelaspectratio>
                  <colordepth>24</colordepth>
               </samplecharacteristics>
            </format>
            <track>
               <clipitem id="clipitem-001">
                  <masterclipid>masterclip-007</masterclipid>
                  <name>sub001.mp4</name>
                  <enabled>TRUE</enabled>
                  <duration>28</duration>
                  <rate>
                     <timebase>30</timebase>
                     <ntsc>TRUE</ntsc>
                  </rate>
                  <start>19</start>
                  <end>27</end>
                  <in>0</in>
                  <out>8</out>
                  <pixelaspectratio>square</pixelaspectratio>
                  <file id="file-007">
                     <name>sub001.mp4</name>
                     <pathurl>file://localhost/C%3a/Users/wdnin/Videos/Matlab%20Music/VADXML/sub001.mp4</pathurl>
                     <rate>
                        <timebase>30</timebase>
                        <ntsc>FALSE</ntsc>
                     </rate>
                     <duration>28</duration>
                     <media>
                        <video>
                           <samplecharacteristics>
                              <rate>
                                 <timebase>30</timebase>
                                 <ntsc>FALSE</ntsc>
                              </rate>
                              <width>1280</width>
                              <height>720</height>
                              <anamorphic>FALSE</anamorphic>
                              <pixelaspectratio>square</pixelaspectratio>
                              <fielddominance>none</fielddominance>
                           </samplecharacteristics>
                        </video>
                        <audio>
                           <samplecharacteristics>
                              <depth>16</depth>
                              <samplerate>48000</samplerate>
                           </samplecharacteristics>
                           <channelcount>2</channelcount>
                        </audio>
                     </media>
                  </file>
               </clipitem>
               <clipitem id="clipitem-001">
                  <masterclipid>masterclip-007</masterclipid>
                  <name>sub001.mp4</name>
                  <enabled>TRUE</enabled>
                  <duration>28</duration>
                  <rate>
                     <timebase>30</timebase>
                     <ntsc>TRUE</ntsc>
                  </rate>
                  <start>32</start>
                  <end>40</end>
                  <in>0</in>
                  <out>8</out>
                  <pixelaspectratio>square</pixelaspectratio>
                  <file id="file-007">
                     <name>sub001.mp4</name>
                     <pathurl>file://localhost/C%3a/Users/wdnin/Videos/Matlab%20Music/VADXML/sub001.mp4</pathurl>
                     <rate>
                        <timebase>30</timebase>
                        <ntsc>FALSE</ntsc>
                     </rate>
                     <duration>28</duration>
                     <media>
                        <video>
                           <samplecharacteristics>
                              <rate>
                                 <timebase>30</timebase>
                                 <ntsc>FALSE</ntsc>
                              </rate>
                              <width>1280</width>
                              <height>720</height>
                              <anamorphic>FALSE</anamorphic>
                              <pixelaspectratio>square</pixelaspectratio>
                              <fielddominance>none</fielddominance>
                           </samplecharacteristics>
                        </video>
                        <audio>
                           <samplecharacteristics>
                              <depth>16</depth>
                              <samplerate>48000</samplerate>
                           </samplecharacteristics>
                           <channelcount>2</channelcount>
                        </audio>
                     </media>
                  </file>
               </clipitem>
               <clipitem id="clipitem-001">
                  <masterclipid>masterclip-007</masterclipid>
                  <name>sub001.mp4</name>
                  <enabled>TRUE</enabled>
                  <duration>28</duration>
                  <rate>
                     <timebase>30</timebase>
                     <ntsc>TRUE</ntsc>
                  </rate>
                  <start>45</start>
                  <end>53</end>
                  <in>0</in>
                  <out>8</out>
                  <pixelaspectratio>square</pixelaspectratio>
                  <file id="file-007">
                     <name>sub001.mp4</name>
                     <pathurl>file://localhost/C%3a/Users/wdnin/Videos/Matlab%20Music/VADXML/sub001.mp4</pathurl>
                     <rate>
                        <timebase>30</timebase>
                        <ntsc>FALSE</ntsc>
                     </rate>
                     <duration>28</duration>
                     <media>
                        <video>
                           <samplecharacteristics>
                              <rate>
                                 <timebase>30</timebase>
                                 <ntsc>FALSE</ntsc>
                              </rate>
                              <width>1280</width>
                              <height>720</height>
                              <anamorphic>FALSE</anamorphic>
                              <pixelaspectratio>square</pixelaspectratio>
                              <fielddominance>none</fielddominance>
                           </samplecharacteristics>
                        </video>
                        <audio>
                           <samplecharacteristics>
                              <depth>16</depth>
                              <samplerate>48000</samplerate>
                           </samplecharacteristics>
                           <channelcount>2</channelcount>
                        </audio>
                     </media>
                  </file>
               </clipitem>
               <clipitem id="clipitem-001">
                  <masterclipid>masterclip-007</masterclipid>
                  <name>sub001.mp4</name>
                  <enabled>TRUE</enabled>
                  <duration>28</duration>
                  <rate>
                     <timebase>30</timebase>
                     <ntsc>TRUE</ntsc>
                  </rate>
                  <start>58</start>
                  <end>66</end>
                  <in>0</in>
                  <out>8</out>
                  <pixelaspectratio>square</pixelaspectratio>
                  <file id="file-007">
                     <name>sub001.mp4</name>
                     <pathurl>file://localhost/C%3a/Users/wdnin/Videos/Matlab%20Music/VADXML/sub001.mp4</pathurl>
                     <rate>
                        <timebase>30</timebase>
                        <ntsc>FALSE</ntsc>
                     </rate>
                     <duration>28</duration>
                     <media>
                        <video>
                           <samplecharacteristics>
                              <rate>
                                 <timebase>30</timebase>
                                 <ntsc>FALSE</ntsc>
                              </rate>
                              <width>1280</width>
                              <height>720</height>
                              <anamorphic>FALSE</anamorphic>
                              <pixelaspectratio>square</pixelaspectratio>
                              <fielddominance>none</fielddominance>
                           </samplecharacteristics>
                        </video>
                        <audio>
                           <samplecharacteristics>
                              <depth>16</depth>
                              <samplerate>48000</samplerate>
                           </samplecharacteristics>
                           <channelcount>2</channelcount>
                        </audio>
                     </media>
                  </file>
               </clipitem>
               <clipitem id="clipitem-001">
                  <masterclipid>masterclip-007</masterclipid>
                  <name>sub001.mp4</name>
                  <enabled>TRUE</enabled>
                  <duration>28</duration>
                  <rate>
                     <timebase>30</timebase>
                     <ntsc>TRUE</ntsc>
                  </rate>
                  <start>62</start>
                  <end>70</end>
                  <in>0</in>
                  <out>8</out>
                  <pixelaspectratio>square</pixelaspectratio>
                  <file id="file-007">
                     <name>sub001.mp4</name>
                     <pathurl>file://localhost/C%3a/Users/wdnin/Videos/Matlab%20Music/VADXML/sub001.mp4</pathurl>
                     <rate>
                        <timebase>30</timebase>
                        <ntsc>FALSE</ntsc>
                     </rate>
                     <duration>28</duration>
                     <media>
                        <video>
                           <samplecharacteristics>
                              <rate>
                                 <timebase>30</timebase>
                                 <ntsc>FALSE</ntsc>
                              </rate>
                              <width>1280</width>
                              <height>720</height>
                              <anamorphic>FALSE</anamorphic>
                              <pixelaspectratio>square</pixelaspectratio>
                              <fielddominance>none</fielddominance>
                           </samplecharacteristics>
                        </video>
                        <audio>
                           <samplecharacteristics>
                              <depth>16</depth>
                              <samplerate>48000</samplerate>
                           </samplecharacteristics>
                           <channelcount>2</channelcount>
                        </audio>
                     </media>
                  </file>
               </clipitem>
               <clipitem id="clipitem-001">
                  <masterclipid>masterclip-007</masterclipid>
                  <name>sub001.mp4</name>
                  <enabled>TRUE</enabled>
                  <duration>28</duration>
                  <rate>
                     <timebase>30</timebase>
                     <ntsc>TRUE</ntsc>
                  </rate>
                  <start>65</start>
                  <end>73</end>
                  <in>0</in>
                  <out>8</out>
                  <pixelaspectratio>square</pixelaspectratio>
                  <file id="file-007">
                     <name>sub001.mp4</name>
                     <pathurl>file://localhost/C%3a/Users/wdnin/Videos/Matlab%20Music/VADXML/sub001.mp4</pathurl>
                     <rate>
                        <timebase>30</timebase>
                        <ntsc>FALSE</ntsc>
                     </rate>
                     <duration>28</duration>
                     <media>
                        <video>
                           <samplecharacteristics>
                              <rate>
                                 <timebase>30</timebase>
                                 <ntsc>FALSE</ntsc>
                              </rate>
                              <width>1280</width>
                              <height>720</height>
                              <anamorphic>FALSE</anamorphic>
                              <pixelaspectratio>square</pixelaspectratio>
                              <fielddominance>none</fielddominance>
                           </samplecharacteristics>
                        </video>
                        <audio>
                           <samplecharacteristics>
                              <depth>16</depth>
                              <samplerate>48000</samplerate>
                           </samplecharacteristics>
                           <channelcount>2</channelcount>
                        </audio>
                     </media>
                  </file>
               </clipitem>
               <clipitem id="clipitem-001">
                  <masterclipid>masterclip-007</masterclipid>
                  <name>sub001.mp4</name>
                  <enabled>TRUE</enabled>
                  <duration>28</duration>
                  <rate>
                     <timebase>30</timebase>
                     <ntsc>TRUE</ntsc>
                  </rate>
                  <start>68</start>
                  <end>76</end>
                  <in>0</in>
                  <out>8</out>
                  <pixelaspectratio>square</pixelaspectratio>
                  <file id="file-007">
                     <name>sub001.mp4</name>
                     <pathurl>file://localhost/C%3a/Users/wdnin/Videos/Matlab%20Music/VADXML/sub001.mp4</pathurl>
                     <rate>
                        <timebase>30</timebase>
                        <ntsc>FALSE</ntsc>
                     </rate>
                     <duration>28</duration>
                     <media>
                        <video>
                           <samplecharacteristics>
                              <rate>
                                 <timebase>30</timebase>
                                 <ntsc>FALSE</ntsc>
                              </rate>
                              <width>1280</width>
                              <height>720</height>
                              <anamorphic>FALSE</anamorphic>
                              <pixelaspectratio>square</pixelaspectratio>
                              <fielddominance>none</fielddominance>
                           </samplecharacteristics>
                        </video>
                        <audio>
                           <samplecharacteristics>
                              <depth>16</depth>
                              <samplerate>48000</samplerate>
                           </samplecharacteristics>
                           <channelcount>2</channelcount>
                        </audio>
                     </media>
                  </file>
               </clipitem>
               <clipitem id="clipitem-001">
                  <masterclipid>masterclip-007</masterclipid>
                  <name>sub001.mp4</name>
                  <enabled>TRUE</enabled>
                  <duration>28</duration>
                  <rate>
                     <timebase>30</timebase>
                     <ntsc>TRUE</ntsc>
                  </rate>
                  <start>71</start>
                  <end>79</end>
                  <in>0</in>
                  <out>8</out>
                  <pixelaspectratio>square</pixelaspectratio>
                  <file id="file-007">
                     <name>sub001.mp4</name>
                     <pathurl>file://localhost/C%3a/Users/wdnin/Videos/Matlab%20Music/VADXML/sub001.mp4</pathurl>
                     <rate>
                        <timebase>30</timebase>
                        <ntsc>FALSE</ntsc>
                     </rate>
                     <duration>28</duration>
                     <media>
                        <video>
                           <samplecharacteristics>
                              <rate>
                                 <timebase>30</timebase>
                                 <ntsc>FALSE</ntsc>
                              </rate>
                              <width>1280</width>
                              <height>720</height>
                              <anamorphic>FALSE</anamorphic>
                              <pixelaspectratio>square</pixelaspectratio>
                              <fielddominance>none</fielddominance>
                           </samplecharacteristics>
                        </video>
                        <audio>
                           <samplecharacteristics>
                              <depth>16</depth>
                              <samplerate>48000</samplerate>
                           </samplecharacteristics>
                           <channelcount>2</channelcount>
                        </audio>
                     </media>
                  </file>
               </clipitem>
               <clipitem id="clipitem-001">
                  <masterclipid>masterclip-007</masterclipid>
                  <name>sub001.mp4</name>
                  <enabled>TRUE</enabled>
                  <duration>28</duration>
                  <rate>
                     <timebase>30</timebase>
                     <ntsc>TRUE</ntsc>
                  </rate>
                  <start>84</start>
                  <end>92</end>
                  <in>0</in>
                  <out>8</out>
                  <pixelaspectratio>square</pixelaspectratio>
                  <file id="file-007">
                     <name>sub001.mp4</name>
                     <pathurl>file://localhost/C%3a/Users/wdnin/Videos/Matlab%20Music/VADXML/sub001.mp4</pathurl>
                     <rate>
                        <timebase>30</timebase>
                        <ntsc>FALSE</ntsc>
                     </rate>
                     <duration>28</duration>
                     <media>
                        <video>
                           <samplecharacteristics>
                              <rate>
                                 <timebase>30</timebase>
                                 <ntsc>FALSE</ntsc>
                              </rate>
                              <width>1280</width>
                              <height>720</height>
                              <anamorphic>FALSE</anamorphic>
                              <pixelaspectratio>square</pixelaspectratio>
                              <fielddominance>none</fielddominance>
                           </samplecharacteristics>
                        </video>
                        <audio>
                           <samplecharacteristics>
                              <depth>16</depth>
                              <samplerate>48000</samplerate>
                           </samplecharacteristics>
                           <channelcount>2</channelcount>
                        </audio>
                     </media>
                  </file>
               </clipitem>
               <clipitem id="clipitem-001">
                  <masterclipid>masterclip-007</masterclipid>
                  <name>sub001.mp4</name>
                  <enabled>TRUE</enabled>
                  <duration>28</duration>
                  <rate>
                     <timebase>30</timebase>
                     <ntsc>TRUE</ntsc>
                  </rate>
                  <start>98</start>
                  <end>106</end>
                  <in>0</in>
                  <out>8</out>
                  <pixelaspectratio>square</pixelaspectratio>
                  <file id="file-007">
                     <name>sub001.mp4</name>
                     <pathurl>file://localhost/C%3a/Users/wdnin/Videos/Matlab%20Music/VADXML/sub001.mp4</pathurl>
                     <rate>
                        <timebase>30</timebase>
                        <ntsc>FALSE</ntsc>
                     </rate>
                     <duration>28</duration>
                     <media>
                        <video>
                           <samplecharacteristics>
                              <rate>
                                 <timebase>30</timebase>
                                 <ntsc>FALSE</ntsc>
                              </rate>
                              <width>1280</width>
                              <height>720</height>
                              <anamorphic>FALSE</anamorphic>
                              <pixelaspectratio>square</pixelaspectratio>
                              <fielddominance>none</fielddominance>
                           </samplecharacteristics>
                        </video>
                        <audio>
                           <samplecharacteristics>
                              <depth>16</depth>
                              <samplerate>48000</samplerate>
                           </samplecharacteristics>
                           <channelcount>2</channelcount>
                        </audio>
                     </media>
                  </file>
               </clipitem>
               <clipitem id="clipitem-001">
                  <masterclipid>masterclip-007</masterclipid>
                  <name>sub001.mp4</name>
                  <enabled>TRUE</enabled>
                  <duration>28</duration>
                  <rate>
                     <timebase>30</timebase>
                     <ntsc>TRUE</ntsc>
                  </rate>
                  <start>111</start>
                  <end>119</end>
                  <in>0</in>
                  <out>8</out>
                  <pixelaspectratio>square</pixelaspectratio>
                  <file id="file-007">
                     <name>sub001.mp4</name>
                     <pathurl>file://localhost/C%3a/Users/wdnin/Videos/Matlab%20Music/VADXML/sub001.mp4</pathurl>
                     <rate>
                        <timebase>30</timebase>
                        <ntsc>FALSE</ntsc>
                     </rate>
                     <duration>28</duration>
                     <media>
                        <video>
                           <samplecharacteristics>
                              <rate>
                                 <timebase>30</timebase>
                                 <ntsc>FALSE</ntsc>
                              </rate>
                              <width>1280</width>
                              <height>720</height>
                              <anamorphic>FALSE</anamorphic>
                              <pixelaspectratio>square</pixelaspectratio>
                              <fielddominance>none</fielddominance>
                           </samplecharacteristics>
                        </video>
                        <audio>
                           <samplecharacteristics>
                              <depth>16</depth>
                              <samplerate>48000</samplerate>
                           </samplecharacteristics>
                           <channelcount>2</channelcount>
                        </audio>
                     </media>
                  </file>
               </clipitem>
               <clipitem id="clipitem-001">
                  <masterclipid>masterclip-007</masterclipid>
                  <name>sub001.mp4</name>
                  <enabled>TRUE</enabled>
                  <duration>28</duration>
                  <rate>
                     <timebase>30</timebase>
                     <ntsc>TRUE</ntsc>
                  </rate>
                  <start>117</start>
                  <end>125</end>
                  <in>0</in>
                  <out>8</out>
                  <pixelaspectratio>square</pixelaspectratio>
                  <file id="file-007">
                     <name>sub001.mp4</name>
                     <pathurl>file://localhost/C%3a/Users/wdnin/Videos/Matlab%20Music/VADXML/sub001.mp4</pathurl>
                     <rate>
                        <timebase>30</timebase>
                        <ntsc>FALSE</ntsc>
                     </rate>
                     <duration>28</duration>
                     <media>
                        <video>
                           <samplecharacteristics>
                              <rate>
                                 <timebase>30</timebase>
                                 <ntsc>FALSE</ntsc>
                              </rate>
                              <width>1280</width>
                              <height>720</height>
                              <anamorphic>FALSE</anamorphic>
                              <pixelaspectratio>square</pixelaspectratio>
                              <fielddominance>none</fielddominance>
                           </samplecharacteristics>
                        </video>
                        <audio>
                           <samplecharacteristics>
                              <depth>16</depth>
                              <samplerate>48000</samplerate>
                           </samplecharacteristics>
                           <channelcount>2</channelcount>
                        </audio>
                     </media>
                  </file>
               </clipitem>
               <clipitem id="clipitem-001">
                  <masterclipid>masterclip-007</masterclipid>
                  <name>sub001.mp4</name>
                  <enabled>TRUE</enabled>
                  <duration>28</duration>
                  <rate>
                     <timebase>30</timebase>
                     <ntsc>TRUE</ntsc>
                  </rate>
                  <start>123</start>
                  <end>131</end>
                  <in>0</in>
                  <out>8</out>
                  <pixelaspectratio>square</pixelaspectratio>
                  <file id="file-007">
                     <name>sub001.mp4</name>
                     <pathurl>file://localhost/C%3a/Users/wdnin/Videos/Matlab%20Music/VADXML/sub001.mp4</pathurl>
                     <rate>
                        <timebase>30</timebase>
                        <ntsc>FALSE</ntsc>
                     </rate>
                     <duration>28</duration>
                     <media>
                        <video>
                           <samplecharacteristics>
                              <rate>
                                 <timebase>30</timebase>
                                 <ntsc>FALSE</ntsc>
                              </rate>
                              <width>1280</width>
                              <height>720</height>
                              <anamorphic>FALSE</anamorphic>
                              <pixelaspectratio>square</pixelaspectratio>
                              <fielddominance>none</fielddominance>
                           </samplecharacteristics>
                        </video>
                        <audio>
                           <samplecharacteristics>
                              <depth>16</depth>
                              <samplerate>48000</samplerate>
                           </samplecharacteristics>
                           <channelcount>2</channelcount>
                        </audio>
                     </media>
                  </file>
               </clipitem>
               <clipitem id="clipitem-001">
                  <masterclipid>masterclip-007</masterclipid>
                  <name>sub001.mp4</name>
                  <enabled>TRUE</enabled>
                  <duration>28</duration>
                  <rate>
                     <timebase>30</timebase>
                     <ntsc>TRUE</ntsc>
                  </rate>
                  <start>136</start>
                  <end>144</end>
                  <in>0</in>
                  <out>8</out>
                  <pixelaspectratio>square</pixelaspectratio>
                  <file id="file-007">
                     <name>sub001.mp4</name>
                     <pathurl>file://localhost/C%3a/Users/wdnin/Videos/Matlab%20Music/VADXML/sub001.mp4</pathurl>
                     <rate>
                        <timebase>30</timebase>
                        <ntsc>FALSE</ntsc>
                     </rate>
                     <duration>28</duration>
                     <media>
                        <video>
                           <samplecharacteristics>
                              <rate>
                                 <timebase>30</timebase>
                                 <ntsc>FALSE</ntsc>
                              </rate>
                              <width>1280</width>
                              <height>720</height>
                              <anamorphic>FALSE</anamorphic>
                              <pixelaspectratio>square</pixelaspectratio>
                              <fielddominance>none</fielddominance>
                           </samplecharacteristics>
                        </video>
                        <audio>
                           <samplecharacteristics>
                              <depth>16</depth>
                              <samplerate>48000</samplerate>
                           </samplecharacteristics>
                           <channelcount>2</channelcount>
                        </audio>
                     </media>
                  </file>
               </clipitem>
               <clipitem id="clipitem-001">
                  <masterclipid>masterclip-007</masterclipid>
                  <name>sub001.mp4</name>
                  <enabled>TRUE</enabled>
                  <duration>28</duration>
                  <rate>
                     <timebase>30</timebase>
                     <ntsc>TRUE</ntsc>
                  </rate>
                  <start>150</start>
                  <end>158</end>
                  <in>0</in>
                  <out>8</out>
                  <pixelaspectratio>square</pixelaspectratio>
                  <file id="file-007">
                     <name>sub001.mp4</name>
                     <pathurl>file://localhost/C%3a/Users/wdnin/Videos/Matlab%20Music/VADXML/sub001.mp4</pathurl>
                     <rate>
                        <timebase>30</timebase>
                        <ntsc>FALSE</ntsc>
                     </rate>
                     <duration>28</duration>
                     <media>
                        <video>
                           <samplecharacteristics>
                              <rate>
                                 <timebase>30</timebase>
                                 <ntsc>FALSE</ntsc>
                              </rate>
                              <width>1280</width>
                              <height>720</height>
                              <anamorphic>FALSE</anamorphic>
                              <pixelaspectratio>square</pixelaspectratio>
                              <fielddominance>none</fielddominance>
                           </samplecharacteristics>
                        </video>
                        <audio>
                           <samplecharacteristics>
                              <depth>16</depth>
                              <samplerate>48000</samplerate>
                           </samplecharacteristics>
                           <channelcount>2</channelcount>
                        </audio>
                     </media>
                  </file>
               </clipitem>
               <clipitem id="clipitem-001">
                  <masterclipid>masterclip-007</masterclipid>
                  <name>sub001.mp4</name>
                  <enabled>TRUE</enabled>
                  <duration>28</duration>
                  <rate>
                     <timebase>30</timebase>
                     <ntsc>TRUE</ntsc>
                  </rate>
                  <start>163</start>
                  <end>171</end>
                  <in>0</in>
                  <out>8</out>
                  <pixelaspectratio>square</pixelaspectratio>
                  <file id="file-007">
                     <name>sub001.mp4</name>
                     <pathurl>file://localhost/C%3a/Users/wdnin/Videos/Matlab%20Music/VADXML/sub001.mp4</pathurl>
                     <rate>
                        <timebase>30</timebase>
                        <ntsc>FALSE</ntsc>
                     </rate>
                     <duration>28</duration>
                     <media>
                        <video>
                           <samplecharacteristics>
                              <rate>
                                 <timebase>30</timebase>
                                 <ntsc>FALSE</ntsc>
                              </rate>
                              <width>1280</width>
                              <height>720</height>
                              <anamorphic>FALSE</anamorphic>
                              <pixelaspectratio>square</pixelaspectratio>
                              <fielddominance>none</fielddominance>
                           </samplecharacteristics>
                        </video>
                        <audio>
                           <samplecharacteristics>
                              <depth>16</depth>
                              <samplerate>48000</samplerate>
                           </samplecharacteristics>
                           <channelcount>2</channelcount>
                        </audio>
                     </media>
                  </file>
               </clipitem>
               <clipitem id="clipitem-001">
                  <masterclipid>masterclip-007</masterclipid>
                  <name>sub001.mp4</name>
                  <enabled>TRUE</enabled>
                  <duration>28</duration>
                  <rate>
                     <timebase>30</timebase>
                     <ntsc>TRUE</ntsc>
                  </rate>
                  <start>166</start>
                  <end>174</end>
                  <in>0</in>
                  <out>8</out>
                  <pixelaspectratio>square</pixelaspectratio>
                  <file id="file-007">
                     <name>sub001.mp4</name>
                     <pathurl>file://localhost/C%3a/Users/wdnin/Videos/Matlab%20Music/VADXML/sub001.mp4</pathurl>
                     <rate>
                        <timebase>30</timebase>
                        <ntsc>FALSE</ntsc>
                     </rate>
                     <duration>28</duration>
                     <media>
                        <video>
                           <samplecharacteristics>
                              <rate>
                                 <timebase>30</timebase>
                                 <ntsc>FALSE</ntsc>
                              </rate>
                              <width>1280</width>
                              <height>720</height>
                              <anamorphic>FALSE</anamorphic>
                              <pixelaspectratio>square</pixelaspectratio>
                              <fielddominance>none</fielddominance>
                           </samplecharacteristics>
                        </video>
                        <audio>
                           <samplecharacteristics>
                              <depth>16</depth>
                              <samplerate>48000</samplerate>
                           </samplecharacteristics>
                           <channelcount>2</channelcount>
                        </audio>
                     </media>
                  </file>
               </clipitem>
               <clipitem id="clipitem-001">
                  <masterclipid>masterclip-007</masterclipid>
                  <name>sub001.mp4</name>
                  <enabled>TRUE</enabled>
                  <duration>28</duration>
                  <rate>
                     <timebase>30</timebase>
                     <ntsc>TRUE</ntsc>
                  </rate>
                  <start>169</start>
                  <end>177</end>
                  <in>0</in>
                  <out>8</out>
                  <pixelaspectratio>square</pixelaspectratio>
                  <file id="file-007">
                     <name>sub001.mp4</name>
                     <pathurl>file://localhost/C%3a/Users/wdnin/Videos/Matlab%20Music/VADXML/sub001.mp4</pathurl>
                     <rate>
                        <timebase>30</timebase>
                        <ntsc>FALSE</ntsc>
                     </rate>
                     <duration>28</duration>
                     <media>
                        <video>
                           <samplecharacteristics>
                              <rate>
                                 <timebase>30</timebase>
                                 <ntsc>FALSE</ntsc>
                              </rate>
                              <width>1280</width>
                              <height>720</height>
                              <anamorphic>FALSE</anamorphic>
                              <pixelaspectratio>square</pixelaspectratio>
                              <fielddominance>none</fielddominance>
                           </samplecharacteristics>
                        </video>
                        <audio>
                           <samplecharacteristics>
                              <depth>16</depth>
                              <samplerate>48000</samplerate>
                           </samplecharacteristics>
                           <channelcount>2</channelcount>
                        </audio>
                     </media>
                  </file>
               </clipitem>
               <clipitem id="clipitem-001">
                  <masterclipid>masterclip-007</masterclipid>
                  <name>sub001.mp4</name>
                  <enabled>TRUE</enabled>
                  <duration>28</duration>
                  <rate>
                     <timebase>30</timebase>
                     <ntsc>TRUE</ntsc>
                  </rate>
                  <start>172</start>
                  <end>180</end>
                  <in>0</in>
                  <out>8</out>
                  <pixelaspectratio>square</pixelaspectratio>
                  <file id="file-007">
                     <name>sub001.mp4</name>
                     <pathurl>file://localhost/C%3a/Users/wdnin/Videos/Matlab%20Music/VADXML/sub001.mp4</pathurl>
                     <rate>
                        <timebase>30</timebase>
                        <ntsc>FALSE</ntsc>
                     </rate>
                     <duration>28</duration>
                     <media>
                        <video>
                           <samplecharacteristics>
                              <rate>
                                 <timebase>30</timebase>
                                 <ntsc>FALSE</ntsc>
                              </rate>
                              <width>1280</width>
                              <height>720</height>
                              <anamorphic>FALSE</anamorphic>
                              <pixelaspectratio>square</pixelaspectratio>
                              <fielddominance>none</fielddominance>
                           </samplecharacteristics>
                        </video>
                        <audio>
                           <samplecharacteristics>
                              <depth>16</depth>
                              <samplerate>48000</samplerate>
                           </samplecharacteristics>
                           <channelcount>2</channelcount>
                        </audio>
                     </media>
                  </file>
               </clipitem>
               <clipitem id="clipitem-001">
                  <masterclipid>masterclip-007</masterclipid>
                  <name>sub001.mp4</name>
                  <enabled>TRUE</enabled>
                  <duration>28</duration>
                  <rate>
                     <timebase>30</timebase>
                     <ntsc>TRUE</ntsc>
                  </rate>
                  <start>175</start>
                  <end>183</end>
                  <in>0</in>
                  <out>8</out>
                  <pixelaspectratio>square</pixelaspectratio>
                  <file id="file-007">
                     <name>sub001.mp4</name>
                     <pathurl>file://localhost/C%3a/Users/wdnin/Videos/Matlab%20Music/VADXML/sub001.mp4</pathurl>
                     <rate>
                        <timebase>30</timebase>
                        <ntsc>FALSE</ntsc>
                     </rate>
                     <duration>28</duration>
                     <media>
                        <video>
                           <samplecharacteristics>
                              <rate>
                                 <timebase>30</timebase>
                                 <ntsc>FALSE</ntsc>
                              </rate>
                              <width>1280</width>
                              <height>720</height>
                              <anamorphic>FALSE</anamorphic>
                              <pixelaspectratio>square</pixelaspectratio>
                              <fielddominance>none</fielddominance>
                           </samplecharacteristics>
                        </video>
                        <audio>
                           <samplecharacteristics>
                              <depth>16</depth>
                              <samplerate>48000</samplerate>
                           </samplecharacteristics>
                           <channelcount>2</channelcount>
                        </audio>
                     </media>
                  </file>
               </clipitem>
               <clipitem id="clipitem-001">
                  <masterclipid>masterclip-007</masterclipid>
                  <name>sub001.mp4</name>
                  <enabled>TRUE</enabled>
                  <duration>28</duration>
                  <rate>
                     <timebase>30</timebase>
                     <ntsc>TRUE</ntsc>
                  </rate>
                  <start>189</start>
                  <end>197</end>
                  <in>0</in>
                  <out>8</out>
                  <pixelaspectratio>square</pixelaspectratio>
                  <file id="file-007">
                     <name>sub001.mp4</name>
                     <pathurl>file://localhost/C%3a/Users/wdnin/Videos/Matlab%20Music/VADXML/sub001.mp4</pathurl>
                     <rate>
                        <timebase>30</timebase>
                        <ntsc>FALSE</ntsc>
                     </rate>
                     <duration>28</duration>
                     <media>
                        <video>
                           <samplecharacteristics>
                              <rate>
                                 <timebase>30</timebase>
                                 <ntsc>FALSE</ntsc>
                              </rate>
                              <width>1280</width>
                              <height>720</height>
                              <anamorphic>FALSE</anamorphic>
                              <pixelaspectratio>square</pixelaspectratio>
                              <fielddominance>none</fielddominance>
                           </samplecharacteristics>
                        </video>
                        <audio>
                           <samplecharacteristics>
                              <depth>16</depth>
                              <samplerate>48000</samplerate>
                           </samplecharacteristics>
                           <channelcount>2</channelcount>
                        </audio>
                     </media>
                  </file>
               </clipitem>
               <clipitem id="clipitem-001">
                  <masterclipid>masterclip-007</masterclipid>
                  <name>sub001.mp4</name>
                  <enabled>TRUE</enabled>
                  <duration>28</duration>
                  <rate>
                     <timebase>30</timebase>
                     <ntsc>TRUE</ntsc>
                  </rate>
                  <start>202</start>
                  <end>210</end>
                  <in>0</in>
                  <out>8</out>
                  <pixelaspectratio>square</pixelaspectratio>
                  <file id="file-007">
                     <name>sub001.mp4</name>
                     <pathurl>file://localhost/C%3a/Users/wdnin/Videos/Matlab%20Music/VADXML/sub001.mp4</pathurl>
                     <rate>
                        <timebase>30</timebase>
                        <ntsc>FALSE</ntsc>
                     </rate>
                     <duration>28</duration>
                     <media>
                        <video>
                           <samplecharacteristics>
                              <rate>
                                 <timebase>30</timebase>
                                 <ntsc>FALSE</ntsc>
                              </rate>
                              <width>1280</width>
                              <height>720</height>
                              <anamorphic>FALSE</anamorphic>
                              <pixelaspectratio>square</pixelaspectratio>
                              <fielddominance>none</fielddominance>
                           </samplecharacteristics>
                        </video>
                        <audio>
                           <samplecharacteristics>
                              <depth>16</depth>
                              <samplerate>48000</samplerate>
                           </samplecharacteristics>
                           <channelcount>2</channelcount>
                        </audio>
                     </media>
                  </file>
               </clipitem>
               <clipitem id="clipitem-001">
                  <masterclipid>masterclip-007</masterclipid>
                  <name>sub001.mp4</name>
                  <enabled>TRUE</enabled>
                  <duration>28</duration>
                  <rate>
                     <timebase>30</timebase>
                     <ntsc>TRUE</ntsc>
                  </rate>
                  <start>215</start>
                  <end>223</end>
                  <in>0</in>
                  <out>8</out>
                  <pixelaspectratio>square</pixelaspectratio>
                  <file id="file-007">
                     <name>sub001.mp4</name>
                     <pathurl>file://localhost/C%3a/Users/wdnin/Videos/Matlab%20Music/VADXML/sub001.mp4</pathurl>
                     <rate>
                        <timebase>30</timebase>
                        <ntsc>FALSE</ntsc>
                     </rate>
                     <duration>28</duration>
                     <media>
                        <video>
                           <samplecharacteristics>
                              <rate>
                                 <timebase>30</timebase>
                                 <ntsc>FALSE</ntsc>
                              </rate>
                              <width>1280</width>
                              <height>720</height>
                              <anamorphic>FALSE</anamorphic>
                              <pixelaspectratio>square</pixelaspectratio>
                              <fielddominance>none</fielddominance>
                           </samplecharacteristics>
                        </video>
                        <audio>
                           <samplecharacteristics>
                              <depth>16</depth>
                              <samplerate>48000</samplerate>
                           </samplecharacteristics>
                           <channelcount>2</channelcount>
                        </audio>
                     </media>
                  </file>
               </clipitem>
               <clipitem id="clipitem-001">
                  <masterclipid>masterclip-007</masterclipid>
                  <name>sub001.mp4</name>
                  <enabled>TRUE</enabled>
                  <duration>28</duration>
                  <rate>
                     <timebase>30</timebase>
                     <ntsc>TRUE</ntsc>
                  </rate>
                  <start>221</start>
                  <end>229</end>
                  <in>0</in>
                  <out>8</out>
                  <pixelaspectratio>square</pixelaspectratio>
                  <file id="file-007">
                     <name>sub001.mp4</name>
                     <pathurl>file://localhost/C%3a/Users/wdnin/Videos/Matlab%20Music/VADXML/sub001.mp4</pathurl>
                     <rate>
                        <timebase>30</timebase>
                        <ntsc>FALSE</ntsc>
                     </rate>
                     <duration>28</duration>
                     <media>
                        <video>
                           <samplecharacteristics>
                              <rate>
                                 <timebase>30</timebase>
                                 <ntsc>FALSE</ntsc>
                              </rate>
                              <width>1280</width>
                              <height>720</height>
                              <anamorphic>FALSE</anamorphic>
                              <pixelaspectratio>square</pixelaspectratio>
                              <fielddominance>none</fielddominance>
                           </samplecharacteristics>
                        </video>
                        <audio>
                           <samplecharacteristics>
                              <depth>16</depth>
                              <samplerate>48000</samplerate>
                           </samplecharacteristics>
                           <channelcount>2</channelcount>
                        </audio>
                     </media>
                  </file>
               </clipitem>
               <clipitem id="clipitem-001">
                  <masterclipid>masterclip-007</masterclipid>
                  <name>sub001.mp4</name>
                  <enabled>TRUE</enabled>
                  <duration>28</duration>
                  <rate>
                     <timebase>30</timebase>
                     <ntsc>TRUE</ntsc>
                  </rate>
                  <start>228</start>
                  <end>236</end>
                  <in>0</in>
                  <out>8</out>
                  <pixelaspectratio>square</pixelaspectratio>
                  <file id="file-007">
                     <name>sub001.mp4</name>
                     <pathurl>file://localhost/C%3a/Users/wdnin/Videos/Matlab%20Music/VADXML/sub001.mp4</pathurl>
                     <rate>
                        <timebase>30</timebase>
                        <ntsc>FALSE</ntsc>
                     </rate>
                     <duration>28</duration>
                     <media>
                        <video>
                           <samplecharacteristics>
                              <rate>
                                 <timebase>30</timebase>
                                 <ntsc>FALSE</ntsc>
                              </rate>
                              <width>1280</width>
                              <height>720</height>
                              <anamorphic>FALSE</anamorphic>
                              <pixelaspectratio>square</pixelaspectratio>
                              <fielddominance>none</fielddominance>
                           </samplecharacteristics>
                        </video>
                        <audio>
                           <samplecharacteristics>
                              <depth>16</depth>
                              <samplerate>48000</samplerate>
                           </samplecharacteristics>
                           <channelcount>2</channelcount>
                        </audio>
                     </media>
                  </file>
               </clipitem>
               <clipitem id="clipitem-001">
                  <masterclipid>masterclip-007</masterclipid>
                  <name>sub001.mp4</name>
                  <enabled>TRUE</enabled>
                  <duration>28</duration>
                  <rate>
                     <timebase>30</timebase>
                     <ntsc>TRUE</ntsc>
                  </rate>
                  <start>241</start>
                  <end>249</end>
                  <in>0</in>
                  <out>8</out>
                  <pixelaspectratio>square</pixelaspectratio>
                  <file id="file-007">
                     <name>sub001.mp4</name>
                     <pathurl>file://localhost/C%3a/Users/wdnin/Videos/Matlab%20Music/VADXML/sub001.mp4</pathurl>
                     <rate>
                        <timebase>30</timebase>
                        <ntsc>FALSE</ntsc>
                     </rate>
                     <duration>28</duration>
                     <media>
                        <video>
                           <samplecharacteristics>
                              <rate>
                                 <timebase>30</timebase>
                                 <ntsc>FALSE</ntsc>
                              </rate>
                              <width>1280</width>
                              <height>720</height>
                              <anamorphic>FALSE</anamorphic>
                              <pixelaspectratio>square</pixelaspectratio>
                              <fielddominance>none</fielddominance>
                           </samplecharacteristics>
                        </video>
                        <audio>
                           <samplecharacteristics>
                              <depth>16</depth>
                              <samplerate>48000</samplerate>
                           </samplecharacteristics>
                           <channelcount>2</channelcount>
                        </audio>
                     </media>
                  </file>
               </clipitem>
               <clipitem id="clipitem-001">
                  <masterclipid>masterclip-007</masterclipid>
                  <name>sub001.mp4</name>
                  <enabled>TRUE</enabled>
                  <duration>28</duration>
                  <rate>
                     <timebase>30</timebase>
                     <ntsc>TRUE</ntsc>
                  </rate>
                  <start>254</start>
                  <end>262</end>
                  <in>0</in>
                  <out>8</out>
                  <pixelaspectratio>square</pixelaspectratio>
                  <file id="file-007">
                     <name>sub001.mp4</name>
                     <pathurl>file://localhost/C%3a/Users/wdnin/Videos/Matlab%20Music/VADXML/sub001.mp4</pathurl>
                     <rate>
                        <timebase>30</timebase>
                        <ntsc>FALSE</ntsc>
                     </rate>
                     <duration>28</duration>
                     <media>
                        <video>
                           <samplecharacteristics>
                              <rate>
                                 <timebase>30</timebase>
                                 <ntsc>FALSE</ntsc>
                              </rate>
                              <width>1280</width>
                              <height>720</height>
                              <anamorphic>FALSE</anamorphic>
                              <pixelaspectratio>square</pixelaspectratio>
                              <fielddominance>none</fielddominance>
                           </samplecharacteristics>
                        </video>
                        <audio>
                           <samplecharacteristics>
                              <depth>16</depth>
                              <samplerate>48000</samplerate>
                           </samplecharacteristics>
                           <channelcount>2</channelcount>
                        </audio>
                     </media>
                  </file>
               </clipitem>
               <clipitem id="clipitem-001">
                  <masterclipid>masterclip-007</masterclipid>
                  <name>sub001.mp4</name>
                  <enabled>TRUE</enabled>
                  <duration>28</duration>
                  <rate>
                     <timebase>30</timebase>
                     <ntsc>TRUE</ntsc>
                  </rate>
                  <start>267</start>
                  <end>275</end>
                  <in>0</in>
                  <out>8</out>
                  <pixelaspectratio>square</pixelaspectratio>
                  <file id="file-007">
                     <name>sub001.mp4</name>
                     <pathurl>file://localhost/C%3a/Users/wdnin/Videos/Matlab%20Music/VADXML/sub001.mp4</pathurl>
                     <rate>
                        <timebase>30</timebase>
                        <ntsc>FALSE</ntsc>
                     </rate>
                     <duration>28</duration>
                     <media>
                        <video>
                           <samplecharacteristics>
                              <rate>
                                 <timebase>30</timebase>
                                 <ntsc>FALSE</ntsc>
                              </rate>
                              <width>1280</width>
                              <height>720</height>
                              <anamorphic>FALSE</anamorphic>
                              <pixelaspectratio>square</pixelaspectratio>
                              <fielddominance>none</fielddominance>
                           </samplecharacteristics>
                        </video>
                        <audio>
                           <samplecharacteristics>
                              <depth>16</depth>
                              <samplerate>48000</samplerate>
                           </samplecharacteristics>
                           <channelcount>2</channelcount>
                        </audio>
                     </media>
                  </file>
               </clipitem>
               <clipitem id="clipitem-001">
                  <masterclipid>masterclip-007</masterclipid>
                  <name>sub001.mp4</name>
                  <enabled>TRUE</enabled>
                  <duration>28</duration>
                  <rate>
                     <timebase>30</timebase>
                     <ntsc>TRUE</ntsc>
                  </rate>
                  <start>270</start>
                  <end>278</end>
                  <in>0</in>
                  <out>8</out>
                  <pixelaspectratio>square</pixelaspectratio>
                  <file id="file-007">
                     <name>sub001.mp4</name>
                     <pathurl>file://localhost/C%3a/Users/wdnin/Videos/Matlab%20Music/VADXML/sub001.mp4</pathurl>
                     <rate>
                        <timebase>30</timebase>
                        <ntsc>FALSE</ntsc>
                     </rate>
                     <duration>28</duration>
                     <media>
                        <video>
                           <samplecharacteristics>
                              <rate>
                                 <timebase>30</timebase>
                                 <ntsc>FALSE</ntsc>
                              </rate>
                              <width>1280</width>
                              <height>720</height>
                              <anamorphic>FALSE</anamorphic>
                              <pixelaspectratio>square</pixelaspectratio>
                              <fielddominance>none</fielddominance>
                           </samplecharacteristics>
                        </video>
                        <audio>
                           <samplecharacteristics>
                              <depth>16</depth>
                              <samplerate>48000</samplerate>
                           </samplecharacteristics>
                           <channelcount>2</channelcount>
                        </audio>
                     </media>
                  </file>
               </clipitem>
               <clipitem id="clipitem-001">
                  <masterclipid>masterclip-007</masterclipid>
                  <name>sub001.mp4</name>
                  <enabled>TRUE</enabled>
                  <duration>28</duration>
                  <rate>
                     <timebase>30</timebase>
                     <ntsc>TRUE</ntsc>
                  </rate>
                  <start>273</start>
                  <end>281</end>
                  <in>0</in>
                  <out>8</out>
                  <pixelaspectratio>square</pixelaspectratio>
                  <file id="file-007">
                     <name>sub001.mp4</name>
                     <pathurl>file://localhost/C%3a/Users/wdnin/Videos/Matlab%20Music/VADXML/sub001.mp4</pathurl>
                     <rate>
                        <timebase>30</timebase>
                        <ntsc>FALSE</ntsc>
                     </rate>
                     <duration>28</duration>
                     <media>
                        <video>
                           <samplecharacteristics>
                              <rate>
                                 <timebase>30</timebase>
                                 <ntsc>FALSE</ntsc>
                              </rate>
                              <width>1280</width>
                              <height>720</height>
                              <anamorphic>FALSE</anamorphic>
                              <pixelaspectratio>square</pixelaspectratio>
                              <fielddominance>none</fielddominance>
                           </samplecharacteristics>
                        </video>
                        <audio>
                           <samplecharacteristics>
                              <depth>16</depth>
                              <samplerate>48000</samplerate>
                           </samplecharacteristics>
                           <channelcount>2</channelcount>
                        </audio>
                     </media>
                  </file>
               </clipitem>
               <clipitem id="clipitem-001">
                  <masterclipid>masterclip-007</masterclipid>
                  <name>sub001.mp4</name>
                  <enabled>TRUE</enabled>
                  <duration>28</duration>
                  <rate>
                     <timebase>30</timebase>
                     <ntsc>TRUE</ntsc>
                  </rate>
                  <start>276</start>
                  <end>284</end>
                  <in>0</in>
                  <out>8</out>
                  <pixelaspectratio>square</pixelaspectratio>
                  <file id="file-007">
                     <name>sub001.mp4</name>
                     <pathurl>file://localhost/C%3a/Users/wdnin/Videos/Matlab%20Music/VADXML/sub001.mp4</pathurl>
                     <rate>
                        <timebase>30</timebase>
                        <ntsc>FALSE</ntsc>
                     </rate>
                     <duration>28</duration>
                     <media>
                        <video>
                           <samplecharacteristics>
                              <rate>
                                 <timebase>30</timebase>
                                 <ntsc>FALSE</ntsc>
                              </rate>
                              <width>1280</width>
                              <height>720</height>
                              <anamorphic>FALSE</anamorphic>
                              <pixelaspectratio>square</pixelaspectratio>
                              <fielddominance>none</fielddominance>
                           </samplecharacteristics>
                        </video>
                        <audio>
                           <samplecharacteristics>
                              <depth>16</depth>
                              <samplerate>48000</samplerate>
                           </samplecharacteristics>
                           <channelcount>2</channelcount>
                        </audio>
                     </media>
                  </file>
               </clipitem>
               <clipitem id="clipitem-001">
                  <masterclipid>masterclip-007</masterclipid>
                  <name>sub001.mp4</name>
                  <enabled>TRUE</enabled>
                  <duration>28</duration>
                  <rate>
                     <timebase>30</timebase>
                     <ntsc>TRUE</ntsc>
                  </rate>
                  <start>280</start>
                  <end>288</end>
                  <in>0</in>
                  <out>8</out>
                  <pixelaspectratio>square</pixelaspectratio>
                  <file id="file-007">
                     <name>sub001.mp4</name>
                     <pathurl>file://localhost/C%3a/Users/wdnin/Videos/Matlab%20Music/VADXML/sub001.mp4</pathurl>
                     <rate>
                        <timebase>30</timebase>
                        <ntsc>FALSE</ntsc>
                     </rate>
                     <duration>28</duration>
                     <media>
                        <video>
                           <samplecharacteristics>
                              <rate>
                                 <timebase>30</timebase>
                                 <ntsc>FALSE</ntsc>
                              </rate>
                              <width>1280</width>
                              <height>720</height>
                              <anamorphic>FALSE</anamorphic>
                              <pixelaspectratio>square</pixelaspectratio>
                              <fielddominance>none</fielddominance>
                           </samplecharacteristics>
                        </video>
                        <audio>
                           <samplecharacteristics>
                              <depth>16</depth>
                              <samplerate>48000</samplerate>
                           </samplecharacteristics>
                           <channelcount>2</channelcount>
                        </audio>
                     </media>
                  </file>
               </clipitem>
               <clipitem id="clipitem-001">
                  <masterclipid>masterclip-007</masterclipid>
                  <name>sub001.mp4</name>
                  <enabled>TRUE</enabled>
                  <duration>28</duration>
                  <rate>
                     <timebase>30</timebase>
                     <ntsc>TRUE</ntsc>
                  </rate>
                  <start>293</start>
                  <end>301</end>
                  <in>0</in>
                  <out>8</out>
                  <pixelaspectratio>square</pixelaspectratio>
                  <file id="file-007">
                     <name>sub001.mp4</name>
                     <pathurl>file://localhost/C%3a/Users/wdnin/Videos/Matlab%20Music/VADXML/sub001.mp4</pathurl>
                     <rate>
                        <timebase>30</timebase>
                        <ntsc>FALSE</ntsc>
                     </rate>
                     <duration>28</duration>
                     <media>
                        <video>
                           <samplecharacteristics>
                              <rate>
                                 <timebase>30</timebase>
                                 <ntsc>FALSE</ntsc>
                              </rate>
                              <width>1280</width>
                              <height>720</height>
                              <anamorphic>FALSE</anamorphic>
                              <pixelaspectratio>square</pixelaspectratio>
                              <fielddominance>none</fielddominance>
                           </samplecharacteristics>
                        </video>
                        <audio>
                           <samplecharacteristics>
                              <depth>16</depth>
                              <samplerate>48000</samplerate>
                           </samplecharacteristics>
                           <channelcount>2</channelcount>
                        </audio>
                     </media>
                  </file>
               </clipitem>
               <clipitem id="clipitem-001">
                  <masterclipid>masterclip-007</masterclipid>
                  <name>sub001.mp4</name>
                  <enabled>TRUE</enabled>
                  <duration>28</duration>
                  <rate>
                     <timebase>30</timebase>
                     <ntsc>TRUE</ntsc>
                  </rate>
                  <start>306</start>
                  <end>314</end>
                  <in>0</in>
                  <out>8</out>
                  <pixelaspectratio>square</pixelaspectratio>
                  <file id="file-007">
                     <name>sub001.mp4</name>
                     <pathurl>file://localhost/C%3a/Users/wdnin/Videos/Matlab%20Music/VADXML/sub001.mp4</pathurl>
                     <rate>
                        <timebase>30</timebase>
                        <ntsc>FALSE</ntsc>
                     </rate>
                     <duration>28</duration>
                     <media>
                        <video>
                           <samplecharacteristics>
                              <rate>
                                 <timebase>30</timebase>
                                 <ntsc>FALSE</ntsc>
                              </rate>
                              <width>1280</width>
                              <height>720</height>
                              <anamorphic>FALSE</anamorphic>
                              <pixelaspectratio>square</pixelaspectratio>
                              <fielddominance>none</fielddominance>
                           </samplecharacteristics>
                        </video>
                        <audio>
                           <samplecharacteristics>
                              <depth>16</depth>
                              <samplerate>48000</samplerate>
                           </samplecharacteristics>
                           <channelcount>2</channelcount>
                        </audio>
                     </media>
                  </file>
               </clipitem>
               <clipitem id="clipitem-001">
                  <masterclipid>masterclip-007</masterclipid>
                  <name>sub001.mp4</name>
                  <enabled>TRUE</enabled>
                  <duration>28</duration>
                  <rate>
                     <timebase>30</timebase>
                     <ntsc>TRUE</ntsc>
                  </rate>
                  <start>319</start>
                  <end>327</end>
                  <in>0</in>
                  <out>8</out>
                  <pixelaspectratio>square</pixelaspectratio>
                  <file id="file-007">
                     <name>sub001.mp4</name>
                     <pathurl>file://localhost/C%3a/Users/wdnin/Videos/Matlab%20Music/VADXML/sub001.mp4</pathurl>
                     <rate>
                        <timebase>30</timebase>
                        <ntsc>FALSE</ntsc>
                     </rate>
                     <duration>28</duration>
                     <media>
                        <video>
                           <samplecharacteristics>
                              <rate>
                                 <timebase>30</timebase>
                                 <ntsc>FALSE</ntsc>
                              </rate>
                              <width>1280</width>
                              <height>720</height>
                              <anamorphic>FALSE</anamorphic>
                              <pixelaspectratio>square</pixelaspectratio>
                              <fielddominance>none</fielddominance>
                           </samplecharacteristics>
                        </video>
                        <audio>
                           <samplecharacteristics>
                              <depth>16</depth>
                              <samplerate>48000</samplerate>
                           </samplecharacteristics>
                           <channelcount>2</channelcount>
                        </audio>
                     </media>
                  </file>
               </clipitem>
               <clipitem id="clipitem-001">
                  <masterclipid>masterclip-007</masterclipid>
                  <name>sub001.mp4</name>
                  <enabled>TRUE</enabled>
                  <duration>28</duration>
                  <rate>
                     <timebase>30</timebase>
                     <ntsc>TRUE</ntsc>
                  </rate>
                  <start>325</start>
                  <end>333</end>
                  <in>0</in>
                  <out>8</out>
                  <pixelaspectratio>square</pixelaspectratio>
                  <file id="file-007">
                     <name>sub001.mp4</name>
                     <pathurl>file://localhost/C%3a/Users/wdnin/Videos/Matlab%20Music/VADXML/sub001.mp4</pathurl>
                     <rate>
                        <timebase>30</timebase>
                        <ntsc>FALSE</ntsc>
                     </rate>
                     <duration>28</duration>
                     <media>
                        <video>
                           <samplecharacteristics>
                              <rate>
                                 <timebase>30</timebase>
                                 <ntsc>FALSE</ntsc>
                              </rate>
                              <width>1280</width>
                              <height>720</height>
                              <anamorphic>FALSE</anamorphic>
                              <pixelaspectratio>square</pixelaspectratio>
                              <fielddominance>none</fielddominance>
                           </samplecharacteristics>
                        </video>
                        <audio>
                           <samplecharacteristics>
                              <depth>16</depth>
                              <samplerate>48000</samplerate>
                           </samplecharacteristics>
                           <channelcount>2</channelcount>
                        </audio>
                     </media>
                  </file>
               </clipitem>
               <clipitem id="clipitem-001">
                  <masterclipid>masterclip-007</masterclipid>
                  <name>sub001.mp4</name>
                  <enabled>TRUE</enabled>
                  <duration>28</duration>
                  <rate>
                     <timebase>30</timebase>
                     <ntsc>TRUE</ntsc>
                  </rate>
                  <start>332</start>
                  <end>340</end>
                  <in>0</in>
                  <out>8</out>
                  <pixelaspectratio>square</pixelaspectratio>
                  <file id="file-007">
                     <name>sub001.mp4</name>
                     <pathurl>file://localhost/C%3a/Users/wdnin/Videos/Matlab%20Music/VADXML/sub001.mp4</pathurl>
                     <rate>
                        <timebase>30</timebase>
                        <ntsc>FALSE</ntsc>
                     </rate>
                     <duration>28</duration>
                     <media>
                        <video>
                           <samplecharacteristics>
                              <rate>
                                 <timebase>30</timebase>
                                 <ntsc>FALSE</ntsc>
                              </rate>
                              <width>1280</width>
                              <height>720</height>
                              <anamorphic>FALSE</anamorphic>
                              <pixelaspectratio>square</pixelaspectratio>
                              <fielddominance>none</fielddominance>
                           </samplecharacteristics>
                        </video>
                        <audio>
                           <samplecharacteristics>
                              <depth>16</depth>
                              <samplerate>48000</samplerate>
                           </samplecharacteristics>
                           <channelcount>2</channelcount>
                        </audio>
                     </media>
                  </file>
               </clipitem>
               <clipitem id="clipitem-001">
                  <masterclipid>masterclip-007</masterclipid>
                  <name>sub001.mp4</name>
                  <enabled>TRUE</enabled>
                  <duration>28</duration>
                  <rate>
                     <timebase>30</timebase>
                     <ntsc>TRUE</ntsc>
                  </rate>
                  <start>345</start>
                  <end>353</end>
                  <in>0</in>
                  <out>8</out>
                  <pixelaspectratio>square</pixelaspectratio>
                  <file id="file-007">
                     <name>sub001.mp4</name>
                     <pathurl>file://localhost/C%3a/Users/wdnin/Videos/Matlab%20Music/VADXML/sub001.mp4</pathurl>
                     <rate>
                        <timebase>30</timebase>
                        <ntsc>FALSE</ntsc>
                     </rate>
                     <duration>28</duration>
                     <media>
                        <video>
                           <samplecharacteristics>
                              <rate>
                                 <timebase>30</timebase>
                                 <ntsc>FALSE</ntsc>
                              </rate>
                              <width>1280</width>
                              <height>720</height>
                              <anamorphic>FALSE</anamorphic>
                              <pixelaspectratio>square</pixelaspectratio>
                              <fielddominance>none</fielddominance>
                           </samplecharacteristics>
                        </video>
                        <audio>
                           <samplecharacteristics>
                              <depth>16</depth>
                              <samplerate>48000</samplerate>
                           </samplecharacteristics>
                           <channelcount>2</channelcount>
                        </audio>
                     </media>
                  </file>
               </clipitem>
               <clipitem id="clipitem-001">
                  <masterclipid>masterclip-007</masterclipid>
                  <name>sub001.mp4</name>
                  <enabled>TRUE</enabled>
                  <duration>28</duration>
                  <rate>
                     <timebase>30</timebase>
                     <ntsc>TRUE</ntsc>
                  </rate>
                  <start>358</start>
                  <end>366</end>
                  <in>0</in>
                  <out>8</out>
                  <pixelaspectratio>square</pixelaspectratio>
                  <file id="file-007">
                     <name>sub001.mp4</name>
                     <pathurl>file://localhost/C%3a/Users/wdnin/Videos/Matlab%20Music/VADXML/sub001.mp4</pathurl>
                     <rate>
                        <timebase>30</timebase>
                        <ntsc>FALSE</ntsc>
                     </rate>
                     <duration>28</duration>
                     <media>
                        <video>
                           <samplecharacteristics>
                              <rate>
                                 <timebase>30</timebase>
                                 <ntsc>FALSE</ntsc>
                              </rate>
                              <width>1280</width>
                              <height>720</height>
                              <anamorphic>FALSE</anamorphic>
                              <pixelaspectratio>square</pixelaspectratio>
                              <fielddominance>none</fielddominance>
                           </samplecharacteristics>
                        </video>
                        <audio>
                           <samplecharacteristics>
                              <depth>16</depth>
                              <samplerate>48000</samplerate>
                           </samplecharacteristics>
                           <channelcount>2</channelcount>
                        </audio>
                     </media>
                  </file>
               </clipitem>
               <clipitem id="clipitem-001">
                  <masterclipid>masterclip-007</masterclipid>
                  <name>sub001.mp4</name>
                  <enabled>TRUE</enabled>
                  <duration>28</duration>
                  <rate>
                     <timebase>30</timebase>
                     <ntsc>TRUE</ntsc>
                  </rate>
                  <start>371</start>
                  <end>379</end>
                  <in>0</in>
                  <out>8</out>
                  <pixelaspectratio>square</pixelaspectratio>
                  <file id="file-007">
                     <name>sub001.mp4</name>
                     <pathurl>file://localhost/C%3a/Users/wdnin/Videos/Matlab%20Music/VADXML/sub001.mp4</pathurl>
                     <rate>
                        <timebase>30</timebase>
                        <ntsc>FALSE</ntsc>
                     </rate>
                     <duration>28</duration>
                     <media>
                        <video>
                           <samplecharacteristics>
                              <rate>
                                 <timebase>30</timebase>
                                 <ntsc>FALSE</ntsc>
                              </rate>
                              <width>1280</width>
                              <height>720</height>
                              <anamorphic>FALSE</anamorphic>
                              <pixelaspectratio>square</pixelaspectratio>
                              <fielddominance>none</fielddominance>
                           </samplecharacteristics>
                        </video>
                        <audio>
                           <samplecharacteristics>
                              <depth>16</depth>
                              <samplerate>48000</samplerate>
                           </samplecharacteristics>
                           <channelcount>2</channelcount>
                        </audio>
                     </media>
                  </file>
               </clipitem>
               <clipitem id="clipitem-001">
                  <masterclipid>masterclip-007</masterclipid>
                  <name>sub001.mp4</name>
                  <enabled>TRUE</enabled>
                  <duration>28</duration>
                  <rate>
                     <timebase>30</timebase>
                     <ntsc>TRUE</ntsc>
                  </rate>
                  <start>374</start>
                  <end>382</end>
                  <in>0</in>
                  <out>8</out>
                  <pixelaspectratio>square</pixelaspectratio>
                  <file id="file-007">
                     <name>sub001.mp4</name>
                     <pathurl>file://localhost/C%3a/Users/wdnin/Videos/Matlab%20Music/VADXML/sub001.mp4</pathurl>
                     <rate>
                        <timebase>30</timebase>
                        <ntsc>FALSE</ntsc>
                     </rate>
                     <duration>28</duration>
                     <media>
                        <video>
                           <samplecharacteristics>
                              <rate>
                                 <timebase>30</timebase>
                                 <ntsc>FALSE</ntsc>
                              </rate>
                              <width>1280</width>
                              <height>720</height>
                              <anamorphic>FALSE</anamorphic>
                              <pixelaspectratio>square</pixelaspectratio>
                              <fielddominance>none</fielddominance>
                           </samplecharacteristics>
                        </video>
                        <audio>
                           <samplecharacteristics>
                              <depth>16</depth>
                              <samplerate>48000</samplerate>
                           </samplecharacteristics>
                           <channelcount>2</channelcount>
                        </audio>
                     </media>
                  </file>
               </clipitem>
               <clipitem id="clipitem-001">
                  <masterclipid>masterclip-007</masterclipid>
                  <name>sub001.mp4</name>
                  <enabled>TRUE</enabled>
                  <duration>28</duration>
                  <rate>
                     <timebase>30</timebase>
                     <ntsc>TRUE</ntsc>
                  </rate>
                  <start>377</start>
                  <end>385</end>
                  <in>0</in>
                  <out>8</out>
                  <pixelaspectratio>square</pixelaspectratio>
                  <file id="file-007">
                     <name>sub001.mp4</name>
                     <pathurl>file://localhost/C%3a/Users/wdnin/Videos/Matlab%20Music/VADXML/sub001.mp4</pathurl>
                     <rate>
                        <timebase>30</timebase>
                        <ntsc>FALSE</ntsc>
                     </rate>
                     <duration>28</duration>
                     <media>
                        <video>
                           <samplecharacteristics>
                              <rate>
                                 <timebase>30</timebase>
                                 <ntsc>FALSE</ntsc>
                              </rate>
                              <width>1280</width>
                              <height>720</height>
                              <anamorphic>FALSE</anamorphic>
                              <pixelaspectratio>square</pixelaspectratio>
                              <fielddominance>none</fielddominance>
                           </samplecharacteristics>
                        </video>
                        <audio>
                           <samplecharacteristics>
                              <depth>16</depth>
                              <samplerate>48000</samplerate>
                           </samplecharacteristics>
                           <channelcount>2</channelcount>
                        </audio>
                     </media>
                  </file>
               </clipitem>
               <clipitem id="clipitem-001">
                  <masterclipid>masterclip-007</masterclipid>
                  <name>sub001.mp4</name>
                  <enabled>TRUE</enabled>
                  <duration>28</duration>
                  <rate>
                     <timebase>30</timebase>
                     <ntsc>TRUE</ntsc>
                  </rate>
                  <start>381</start>
                  <end>389</end>
                  <in>0</in>
                  <out>8</out>
                  <pixelaspectratio>square</pixelaspectratio>
                  <file id="file-007">
                     <name>sub001.mp4</name>
                     <pathurl>file://localhost/C%3a/Users/wdnin/Videos/Matlab%20Music/VADXML/sub001.mp4</pathurl>
                     <rate>
                        <timebase>30</timebase>
                        <ntsc>FALSE</ntsc>
                     </rate>
                     <duration>28</duration>
                     <media>
                        <video>
                           <samplecharacteristics>
                              <rate>
                                 <timebase>30</timebase>
                                 <ntsc>FALSE</ntsc>
                              </rate>
                              <width>1280</width>
                              <height>720</height>
                              <anamorphic>FALSE</anamorphic>
                              <pixelaspectratio>square</pixelaspectratio>
                              <fielddominance>none</fielddominance>
                           </samplecharacteristics>
                        </video>
                        <audio>
                           <samplecharacteristics>
                              <depth>16</depth>
                              <samplerate>48000</samplerate>
                           </samplecharacteristics>
                           <channelcount>2</channelcount>
                        </audio>
                     </media>
                  </file>
               </clipitem>
               <clipitem id="clipitem-001">
                  <masterclipid>masterclip-007</masterclipid>
                  <name>sub001.mp4</name>
                  <enabled>TRUE</enabled>
                  <duration>28</duration>
                  <rate>
                     <timebase>30</timebase>
                     <ntsc>TRUE</ntsc>
                  </rate>
                  <start>384</start>
                  <end>392</end>
                  <in>0</in>
                  <out>8</out>
                  <pixelaspectratio>square</pixelaspectratio>
                  <file id="file-007">
                     <name>sub001.mp4</name>
                     <pathurl>file://localhost/C%3a/Users/wdnin/Videos/Matlab%20Music/VADXML/sub001.mp4</pathurl>
                     <rate>
                        <timebase>30</timebase>
                        <ntsc>FALSE</ntsc>
                     </rate>
                     <duration>28</duration>
                     <media>
                        <video>
                           <samplecharacteristics>
                              <rate>
                                 <timebase>30</timebase>
                                 <ntsc>FALSE</ntsc>
                              </rate>
                              <width>1280</width>
                              <height>720</height>
                              <anamorphic>FALSE</anamorphic>
                              <pixelaspectratio>square</pixelaspectratio>
                              <fielddominance>none</fielddominance>
                           </samplecharacteristics>
                        </video>
                        <audio>
                           <samplecharacteristics>
                              <depth>16</depth>
                              <samplerate>48000</samplerate>
                           </samplecharacteristics>
                           <channelcount>2</channelcount>
                        </audio>
                     </media>
                  </file>
               </clipitem>
               <clipitem id="clipitem-001">
                  <masterclipid>masterclip-007</masterclipid>
                  <name>sub001.mp4</name>
                  <enabled>TRUE</enabled>
                  <duration>28</duration>
                  <rate>
                     <timebase>30</timebase>
                     <ntsc>TRUE</ntsc>
                  </rate>
                  <start>397</start>
                  <end>405</end>
                  <in>0</in>
                  <out>8</out>
                  <pixelaspectratio>square</pixelaspectratio>
                  <file id="file-007">
                     <name>sub001.mp4</name>
                     <pathurl>file://localhost/C%3a/Users/wdnin/Videos/Matlab%20Music/VADXML/sub001.mp4</pathurl>
                     <rate>
                        <timebase>30</timebase>
                        <ntsc>FALSE</ntsc>
                     </rate>
                     <duration>28</duration>
                     <media>
                        <video>
                           <samplecharacteristics>
                              <rate>
                                 <timebase>30</timebase>
                                 <ntsc>FALSE</ntsc>
                              </rate>
                              <width>1280</width>
                              <height>720</height>
                              <anamorphic>FALSE</anamorphic>
                              <pixelaspectratio>square</pixelaspectratio>
                              <fielddominance>none</fielddominance>
                           </samplecharacteristics>
                        </video>
                        <audio>
                           <samplecharacteristics>
                              <depth>16</depth>
                              <samplerate>48000</samplerate>
                           </samplecharacteristics>
                           <channelcount>2</channelcount>
                        </audio>
                     </media>
                  </file>
               </clipitem>
               <clipitem id="clipitem-001">
                  <masterclipid>masterclip-007</masterclipid>
                  <name>sub001.mp4</name>
                  <enabled>TRUE</enabled>
                  <duration>28</duration>
                  <rate>
                     <timebase>30</timebase>
                     <ntsc>TRUE</ntsc>
                  </rate>
                  <start>410</start>
                  <end>418</end>
                  <in>0</in>
                  <out>8</out>
                  <pixelaspectratio>square</pixelaspectratio>
                  <file id="file-007">
                     <name>sub001.mp4</name>
                     <pathurl>file://localhost/C%3a/Users/wdnin/Videos/Matlab%20Music/VADXML/sub001.mp4</pathurl>
                     <rate>
                        <timebase>30</timebase>
                        <ntsc>FALSE</ntsc>
                     </rate>
                     <duration>28</duration>
                     <media>
                        <video>
                           <samplecharacteristics>
                              <rate>
                                 <timebase>30</timebase>
                                 <ntsc>FALSE</ntsc>
                              </rate>
                              <width>1280</width>
                              <height>720</height>
                              <anamorphic>FALSE</anamorphic>
                              <pixelaspectratio>square</pixelaspectratio>
                              <fielddominance>none</fielddominance>
                           </samplecharacteristics>
                        </video>
                        <audio>
                           <samplecharacteristics>
                              <depth>16</depth>
                              <samplerate>48000</samplerate>
                           </samplecharacteristics>
                           <channelcount>2</channelcount>
                        </audio>
                     </media>
                  </file>
               </clipitem>
               <clipitem id="clipitem-001">
                  <masterclipid>masterclip-007</masterclipid>
                  <name>sub001.mp4</name>
                  <enabled>TRUE</enabled>
                  <duration>28</duration>
                  <rate>
                     <timebase>30</timebase>
                     <ntsc>TRUE</ntsc>
                  </rate>
                  <start>423</start>
                  <end>431</end>
                  <in>0</in>
                  <out>8</out>
                  <pixelaspectratio>square</pixelaspectratio>
                  <file id="file-007">
                     <name>sub001.mp4</name>
                     <pathurl>file://localhost/C%3a/Users/wdnin/Videos/Matlab%20Music/VADXML/sub001.mp4</pathurl>
                     <rate>
                        <timebase>30</timebase>
                        <ntsc>FALSE</ntsc>
                     </rate>
                     <duration>28</duration>
                     <media>
                        <video>
                           <samplecharacteristics>
                              <rate>
                                 <timebase>30</timebase>
                                 <ntsc>FALSE</ntsc>
                              </rate>
                              <width>1280</width>
                              <height>720</height>
                              <anamorphic>FALSE</anamorphic>
                              <pixelaspectratio>square</pixelaspectratio>
                              <fielddominance>none</fielddominance>
                           </samplecharacteristics>
                        </video>
                        <audio>
                           <samplecharacteristics>
                              <depth>16</depth>
                              <samplerate>48000</samplerate>
                           </samplecharacteristics>
                           <channelcount>2</channelcount>
                        </audio>
                     </media>
                  </file>
               </clipitem>
               <enabled>TRUE</enabled>
               <locked>FALSE</locked>
            </track>
         </video>
         <audio>
            <numOutputChannels>2</numOutputChannels>
            <format>
               <samplecharacteristics>
                  <depth>16</depth>
                  <samplerate>44100</samplerate>
               </samplecharacteristics>
            </format>
            <track PannerCurrentValue="0.5" currentExplodedTrackIndex="0" premiereTrackType="Stereo" totalExplodedTrackCount="2">
               <clipitem id="clipitem-003" premiereChannelType="stereo">
                  <masterclipid>masterclip-009</masterclipid>
                  <name>BadAppleClip.mp3</name>
                  <enabled>TRUE</enabled>
                  <duration>433</duration>
                  <rate>
                     <timebase>30</timebase>
                     <ntsc>TRUE</ntsc>
                  </rate>
                  <start>0</start>
                  <end>433</end>
                  <in>0</in>
                  <out>433</out>
                  <file id="file-009">
                     <name>BadAppleClip.mp3</name>
                     <pathurl>file://localhost/C%3a/Users/wdnin/Videos/Matlab%20Music/VADXML/BadAppleClip.mp3</pathurl>
                     <rate>
                        <timebase>30</timebase>
                        <ntsc>TRUE</ntsc>
                     </rate>
                     <duration>433</duration>
                     <media>
                        <audio>
                           <samplecharacteristics>
                              <depth>16</depth>
                              <samplerate>44100</samplerate>
                           </samplecharacteristics>
                           <channelcount>2</channelcount>
                        </audio>
                     </media>
                  </file>
                  <sourcetrack>
                     <mediatype>audio</mediatype>
                     <trackindex>1</trackindex>
                  </sourcetrack>
               </clipitem>
               <enabled>TRUE</enabled>
               <locked>FALSE</locked>
               <outputchannelindex>1</outputchannelindex>
            </track>
            <track PannerCurrentValue="0.5" currentExplodedTrackIndex="1" premiereTrackType="Stereo" totalExplodedTrackCount="2">
               <clipitem id="clipitem-003" premiereChannelType="stereo">
                  <masterclipid>masterclip-009</masterclipid>
                  <name>BadAppleClip.mp3</name>
                  <enabled>TRUE</enabled>
                  <duration>433</duration>
                  <rate>
                     <timebase>30</timebase>
                     <ntsc>TRUE</ntsc>
                  </rate>
                  <start>0</start>
                  <end>433</end>
                  <in>0</in>
                  <out>433</out>
                  <file id="file-009">
                     <name>BadAppleClip.mp3</name>
                     <pathurl>file://localhost/C%3a/Users/wdnin/Videos/Matlab%20Music/VADXML/BadAppleClip.mp3</pathurl>
                     <rate>
                        <timebase>30</timebase>
                        <ntsc>TRUE</ntsc>
                     </rate>
                     <duration>433</duration>
                     <media>
                        <audio>
                           <samplecharacteristics>
                              <depth>16</depth>
                              <samplerate>44100</samplerate>
                           </samplecharacteristics>
                           <channelcount>2</channelcount>
                        </audio>
                     </media>
                  </file>
                  <sourcetrack>
                     <mediatype>audio</mediatype>
                     <trackindex>1</trackindex>
                  </sourcetrack>
               </clipitem>
               <enabled>TRUE</enabled>
               <locked>FALSE</locked>
               <outputchannelindex>2</outputchannelindex>
            </track>
            <track PannerCurrentValue="0.5" currentExplodedTrackIndex="0" premiereTrackType="Stereo" totalExplodedTrackCount="2">
               <clipitem id="clipitem-002" premiereChannelType="stereo">
                  <masterclipid>masterclip-007</masterclipid>
                  <name>sub001.mp4</name>
                  <enabled>TRUE</enabled>
                  <duration>28</duration>
                  <rate>
                     <timebase>30</timebase>
                     <ntsc>TRUE</ntsc>
                  </rate>
                  <start>19</start>
                  <end>27</end>
                  <in>0</in>
                  <out>8</out>
                  <file id="file-007"/>
                  <sourcetrack>
                     <mediatype>audio</mediatype>
                     <trackindex>1</trackindex>
                  </sourcetrack>
               </clipitem>
               <clipitem id="clipitem-002" premiereChannelType="stereo">
                  <masterclipid>masterclip-007</masterclipid>
                  <name>sub001.mp4</name>
                  <enabled>TRUE</enabled>
                  <duration>28</duration>
                  <rate>
                     <timebase>30</timebase>
                     <ntsc>TRUE</ntsc>
                  </rate>
                  <start>32</start>
                  <end>40</end>
                  <in>0</in>
                  <out>8</out>
                  <file id="file-007"/>
                  <sourcetrack>
                     <mediatype>audio</mediatype>
                     <trackindex>1</trackindex>
                  </sourcetrack>
               </clipitem>
               <clipitem id="clipitem-002" premiereChannelType="stereo">
                  <masterclipid>masterclip-007</masterclipid>
                  <name>sub001.mp4</name>
                  <enabled>TRUE</enabled>
                  <duration>28</duration>
                  <rate>
                     <timebase>30</timebase>
                     <ntsc>TRUE</ntsc>
                  </rate>
                  <start>45</start>
                  <end>53</end>
                  <in>0</in>
                  <out>8</out>
                  <file id="file-007"/>
                  <sourcetrack>
                     <mediatype>audio</mediatype>
                     <trackindex>1</trackindex>
                  </sourcetrack>
               </clipitem>
               <clipitem id="clipitem-002" premiereChannelType="stereo">
                  <masterclipid>masterclip-007</masterclipid>
                  <name>sub001.mp4</name>
                  <enabled>TRUE</enabled>
                  <duration>28</duration>
                  <rate>
                     <timebase>30</timebase>
                     <ntsc>TRUE</ntsc>
                  </rate>
                  <start>58</start>
                  <end>66</end>
                  <in>0</in>
                  <out>8</out>
                  <file id="file-007"/>
                  <sourcetrack>
                     <mediatype>audio</mediatype>
                     <trackindex>1</trackindex>
                  </sourcetrack>
               </clipitem>
               <clipitem id="clipitem-002" premiereChannelType="stereo">
                  <masterclipid>masterclip-007</masterclipid>
                  <name>sub001.mp4</name>
                  <enabled>TRUE</enabled>
                  <duration>28</duration>
                  <rate>
                     <timebase>30</timebase>
                     <ntsc>TRUE</ntsc>
                  </rate>
                  <start>62</start>
                  <end>70</end>
                  <in>0</in>
                  <out>8</out>
                  <file id="file-007"/>
                  <sourcetrack>
                     <mediatype>audio</mediatype>
                     <trackindex>1</trackindex>
                  </sourcetrack>
               </clipitem>
               <clipitem id="clipitem-002" premiereChannelType="stereo">
                  <masterclipid>masterclip-007</masterclipid>
                  <name>sub001.mp4</name>
                  <enabled>TRUE</enabled>
                  <duration>28</duration>
                  <rate>
                     <timebase>30</timebase>
                     <ntsc>TRUE</ntsc>
                  </rate>
                  <start>65</start>
                  <end>73</end>
                  <in>0</in>
                  <out>8</out>
                  <file id="file-007"/>
                  <sourcetrack>
                     <mediatype>audio</mediatype>
                     <trackindex>1</trackindex>
                  </sourcetrack>
               </clipitem>
               <clipitem id="clipitem-002" premiereChannelType="stereo">
                  <masterclipid>masterclip-007</masterclipid>
                  <name>sub001.mp4</name>
                  <enabled>TRUE</enabled>
                  <duration>28</duration>
                  <rate>
                     <timebase>30</timebase>
                     <ntsc>TRUE</ntsc>
                  </rate>
                  <start>68</start>
                  <end>76</end>
                  <in>0</in>
                  <out>8</out>
                  <file id="file-007"/>
                  <sourcetrack>
                     <mediatype>audio</mediatype>
                     <trackindex>1</trackindex>
                  </sourcetrack>
               </clipitem>
               <clipitem id="clipitem-002" premiereChannelType="stereo">
                  <masterclipid>masterclip-007</masterclipid>
                  <name>sub001.mp4</name>
                  <enabled>TRUE</enabled>
                  <duration>28</duration>
                  <rate>
                     <timebase>30</timebase>
                     <ntsc>TRUE</ntsc>
                  </rate>
                  <start>71</start>
                  <end>79</end>
                  <in>0</in>
                  <out>8</out>
                  <file id="file-007"/>
                  <sourcetrack>
                     <mediatype>audio</mediatype>
                     <trackindex>1</trackindex>
                  </sourcetrack>
               </clipitem>
               <clipitem id="clipitem-002" premiereChannelType="stereo">
                  <masterclipid>masterclip-007</masterclipid>
                  <name>sub001.mp4</name>
                  <enabled>TRUE</enabled>
                  <duration>28</duration>
                  <rate>
                     <timebase>30</timebase>
                     <ntsc>TRUE</ntsc>
                  </rate>
                  <start>84</start>
                  <end>92</end>
                  <in>0</in>
                  <out>8</out>
                  <file id="file-007"/>
                  <sourcetrack>
                     <mediatype>audio</mediatype>
                     <trackindex>1</trackindex>
                  </sourcetrack>
               </clipitem>
               <clipitem id="clipitem-002" premiereChannelType="stereo">
                  <masterclipid>masterclip-007</masterclipid>
                  <name>sub001.mp4</name>
                  <enabled>TRUE</enabled>
                  <duration>28</duration>
                  <rate>
                     <timebase>30</timebase>
                     <ntsc>TRUE</ntsc>
                  </rate>
                  <start>98</start>
                  <end>106</end>
                  <in>0</in>
                  <out>8</out>
                  <file id="file-007"/>
                  <sourcetrack>
                     <mediatype>audio</mediatype>
                     <trackindex>1</trackindex>
                  </sourcetrack>
               </clipitem>
               <clipitem id="clipitem-002" premiereChannelType="stereo">
                  <masterclipid>masterclip-007</masterclipid>
                  <name>sub001.mp4</name>
                  <enabled>TRUE</enabled>
                  <duration>28</duration>
                  <rate>
                     <timebase>30</timebase>
                     <ntsc>TRUE</ntsc>
                  </rate>
                  <start>111</start>
                  <end>119</end>
                  <in>0</in>
                  <out>8</out>
                  <file id="file-007"/>
                  <sourcetrack>
                     <mediatype>audio</mediatype>
                     <trackindex>1</trackindex>
                  </sourcetrack>
               </clipitem>
               <clipitem id="clipitem-002" premiereChannelType="stereo">
                  <masterclipid>masterclip-007</masterclipid>
                  <name>sub001.mp4</name>
                  <enabled>TRUE</enabled>
                  <duration>28</duration>
                  <rate>
                     <timebase>30</timebase>
                     <ntsc>TRUE</ntsc>
                  </rate>
                  <start>117</start>
                  <end>125</end>
                  <in>0</in>
                  <out>8</out>
                  <file id="file-007"/>
                  <sourcetrack>
                     <mediatype>audio</mediatype>
                     <trackindex>1</trackindex>
                  </sourcetrack>
               </clipitem>
               <clipitem id="clipitem-002" premiereChannelType="stereo">
                  <masterclipid>masterclip-007</masterclipid>
                  <name>sub001.mp4</name>
                  <enabled>TRUE</enabled>
                  <duration>28</duration>
                  <rate>
                     <timebase>30</timebase>
                     <ntsc>TRUE</ntsc>
                  </rate>
                  <start>123</start>
                  <end>131</end>
                  <in>0</in>
                  <out>8</out>
                  <file id="file-007"/>
                  <sourcetrack>
                     <mediatype>audio</mediatype>
                     <trackindex>1</trackindex>
                  </sourcetrack>
               </clipitem>
               <clipitem id="clipitem-002" premiereChannelType="stereo">
                  <masterclipid>masterclip-007</masterclipid>
                  <name>sub001.mp4</name>
                  <enabled>TRUE</enabled>
                  <duration>28</duration>
                  <rate>
                     <timebase>30</timebase>
                     <ntsc>TRUE</ntsc>
                  </rate>
                  <start>136</start>
                  <end>144</end>
                  <in>0</in>
                  <out>8</out>
                  <file id="file-007"/>
                  <sourcetrack>
                     <mediatype>audio</mediatype>
                     <trackindex>1</trackindex>
                  </sourcetrack>
               </clipitem>
               <clipitem id="clipitem-002" premiereChannelType="stereo">
                  <masterclipid>masterclip-007</masterclipid>
                  <name>sub001.mp4</name>
                  <enabled>TRUE</enabled>
                  <duration>28</duration>
                  <rate>
                     <timebase>30</timebase>
                     <ntsc>TRUE</ntsc>
                  </rate>
                  <start>150</start>
                  <end>158</end>
                  <in>0</in>
                  <out>8</out>
                  <file id="file-007"/>
                  <sourcetrack>
                     <mediatype>audio</mediatype>
                     <trackindex>1</trackindex>
                  </sourcetrack>
               </clipitem>
               <clipitem id="clipitem-002" premiereChannelType="stereo">
                  <masterclipid>masterclip-007</masterclipid>
                  <name>sub001.mp4</name>
                  <enabled>TRUE</enabled>
                  <duration>28</duration>
                  <rate>
                     <timebase>30</timebase>
                     <ntsc>TRUE</ntsc>
                  </rate>
                  <start>163</start>
                  <end>171</end>
                  <in>0</in>
                  <out>8</out>
                  <file id="file-007"/>
                  <sourcetrack>
                     <mediatype>audio</mediatype>
                     <trackindex>1</trackindex>
                  </sourcetrack>
               </clipitem>
               <clipitem id="clipitem-002" premiereChannelType="stereo">
                  <masterclipid>masterclip-007</masterclipid>
                  <name>sub001.mp4</name>
                  <enabled>TRUE</enabled>
                  <duration>28</duration>
                  <rate>
                     <timebase>30</timebase>
                     <ntsc>TRUE</ntsc>
                  </rate>
                  <start>166</start>
                  <end>174</end>
                  <in>0</in>
                  <out>8</out>
                  <file id="file-007"/>
                  <sourcetrack>
                     <mediatype>audio</mediatype>
                     <trackindex>1</trackindex>
                  </sourcetrack>
               </clipitem>
               <clipitem id="clipitem-002" premiereChannelType="stereo">
                  <masterclipid>masterclip-007</masterclipid>
                  <name>sub001.mp4</name>
                  <enabled>TRUE</enabled>
                  <duration>28</duration>
                  <rate>
                     <timebase>30</timebase>
                     <ntsc>TRUE</ntsc>
                  </rate>
                  <start>169</start>
                  <end>177</end>
                  <in>0</in>
                  <out>8</out>
                  <file id="file-007"/>
                  <sourcetrack>
                     <mediatype>audio</mediatype>
                     <trackindex>1</trackindex>
                  </sourcetrack>
               </clipitem>
               <clipitem id="clipitem-002" premiereChannelType="stereo">
                  <masterclipid>masterclip-007</masterclipid>
                  <name>sub001.mp4</name>
                  <enabled>TRUE</enabled>
                  <duration>28</duration>
                  <rate>
                     <timebase>30</timebase>
                     <ntsc>TRUE</ntsc>
                  </rate>
                  <start>172</start>
                  <end>180</end>
                  <in>0</in>
                  <out>8</out>
                  <file id="file-007"/>
                  <sourcetrack>
                     <mediatype>audio</mediatype>
                     <trackindex>1</trackindex>
                  </sourcetrack>
               </clipitem>
               <clipitem id="clipitem-002" premiereChannelType="stereo">
                  <masterclipid>masterclip-007</masterclipid>
                  <name>sub001.mp4</name>
                  <enabled>TRUE</enabled>
                  <duration>28</duration>
                  <rate>
                     <timebase>30</timebase>
                     <ntsc>TRUE</ntsc>
                  </rate>
                  <start>175</start>
                  <end>183</end>
                  <in>0</in>
                  <out>8</out>
                  <file id="file-007"/>
                  <sourcetrack>
                     <mediatype>audio</mediatype>
                     <trackindex>1</trackindex>
                  </sourcetrack>
               </clipitem>
               <clipitem id="clipitem-002" premiereChannelType="stereo">
                  <masterclipid>masterclip-007</masterclipid>
                  <name>sub001.mp4</name>
                  <enabled>TRUE</enabled>
                  <duration>28</duration>
                  <rate>
                     <timebase>30</timebase>
                     <ntsc>TRUE</ntsc>
                  </rate>
                  <start>189</start>
                  <end>197</end>
                  <in>0</in>
                  <out>8</out>
                  <file id="file-007"/>
                  <sourcetrack>
                     <mediatype>audio</mediatype>
                     <trackindex>1</trackindex>
                  </sourcetrack>
               </clipitem>
               <clipitem id="clipitem-002" premiereChannelType="stereo">
                  <masterclipid>masterclip-007</masterclipid>
                  <name>sub001.mp4</name>
                  <enabled>TRUE</enabled>
                  <duration>28</duration>
                  <rate>
                     <timebase>30</timebase>
                     <ntsc>TRUE</ntsc>
                  </rate>
                  <start>202</start>
                  <end>210</end>
                  <in>0</in>
                  <out>8</out>
                  <file id="file-007"/>
                  <sourcetrack>
                     <mediatype>audio</mediatype>
                     <trackindex>1</trackindex>
                  </sourcetrack>
               </clipitem>
               <clipitem id="clipitem-002" premiereChannelType="stereo">
                  <masterclipid>masterclip-007</masterclipid>
                  <name>sub001.mp4</name>
                  <enabled>TRUE</enabled>
                  <duration>28</duration>
                  <rate>
                     <timebase>30</timebase>
                     <ntsc>TRUE</ntsc>
                  </rate>
                  <start>215</start>
                  <end>223</end>
                  <in>0</in>
                  <out>8</out>
                  <file id="file-007"/>
                  <sourcetrack>
                     <mediatype>audio</mediatype>
                     <trackindex>1</trackindex>
                  </sourcetrack>
               </clipitem>
               <clipitem id="clipitem-002" premiereChannelType="stereo">
                  <masterclipid>masterclip-007</masterclipid>
                  <name>sub001.mp4</name>
                  <enabled>TRUE</enabled>
                  <duration>28</duration>
                  <rate>
                     <timebase>30</timebase>
                     <ntsc>TRUE</ntsc>
                  </rate>
                  <start>221</start>
                  <end>229</end>
                  <in>0</in>
                  <out>8</out>
                  <file id="file-007"/>
                  <sourcetrack>
                     <mediatype>audio</mediatype>
                     <trackindex>1</trackindex>
                  </sourcetrack>
               </clipitem>
               <clipitem id="clipitem-002" premiereChannelType="stereo">
                  <masterclipid>masterclip-007</masterclipid>
                  <name>sub001.mp4</name>
                  <enabled>TRUE</enabled>
                  <duration>28</duration>
                  <rate>
                     <timebase>30</timebase>
                     <ntsc>TRUE</ntsc>
                  </rate>
                  <start>228</start>
                  <end>236</end>
                  <in>0</in>
                  <out>8</out>
                  <file id="file-007"/>
                  <sourcetrack>
                     <mediatype>audio</mediatype>
                     <trackindex>1</trackindex>
                  </sourcetrack>
               </clipitem>
               <clipitem id="clipitem-002" premiereChannelType="stereo">
                  <masterclipid>masterclip-007</masterclipid>
                  <name>sub001.mp4</name>
                  <enabled>TRUE</enabled>
                  <duration>28</duration>
                  <rate>
                     <timebase>30</timebase>
                     <ntsc>TRUE</ntsc>
                  </rate>
                  <start>241</start>
                  <end>249</end>
                  <in>0</in>
                  <out>8</out>
                  <file id="file-007"/>
                  <sourcetrack>
                     <mediatype>audio</mediatype>
                     <trackindex>1</trackindex>
                  </sourcetrack>
               </clipitem>
               <clipitem id="clipitem-002" premiereChannelType="stereo">
                  <masterclipid>masterclip-007</masterclipid>
                  <name>sub001.mp4</name>
                  <enabled>TRUE</enabled>
                  <duration>28</duration>
                  <rate>
                     <timebase>30</timebase>
                     <ntsc>TRUE</ntsc>
                  </rate>
                  <start>254</start>
                  <end>262</end>
                  <in>0</in>
                  <out>8</out>
                  <file id="file-007"/>
                  <sourcetrack>
                     <mediatype>audio</mediatype>
                     <trackindex>1</trackindex>
                  </sourcetrack>
               </clipitem>
               <clipitem id="clipitem-002" premiereChannelType="stereo">
                  <masterclipid>masterclip-007</masterclipid>
                  <name>sub001.mp4</name>
                  <enabled>TRUE</enabled>
                  <duration>28</duration>
                  <rate>
                     <timebase>30</timebase>
                     <ntsc>TRUE</ntsc>
                  </rate>
                  <start>267</start>
                  <end>275</end>
                  <in>0</in>
                  <out>8</out>
                  <file id="file-007"/>
                  <sourcetrack>
                     <mediatype>audio</mediatype>
                     <trackindex>1</trackindex>
                  </sourcetrack>
               </clipitem>
               <clipitem id="clipitem-002" premiereChannelType="stereo">
                  <masterclipid>masterclip-007</masterclipid>
                  <name>sub001.mp4</name>
                  <enabled>TRUE</enabled>
                  <duration>28</duration>
                  <rate>
                     <timebase>30</timebase>
                     <ntsc>TRUE</ntsc>
                  </rate>
                  <start>270</start>
                  <end>278</end>
                  <in>0</in>
                  <out>8</out>
                  <file id="file-007"/>
                  <sourcetrack>
                     <mediatype>audio</mediatype>
                     <trackindex>1</trackindex>
                  </sourcetrack>
               </clipitem>
               <clipitem id="clipitem-002" premiereChannelType="stereo">
                  <masterclipid>masterclip-007</masterclipid>
                  <name>sub001.mp4</name>
                  <enabled>TRUE</enabled>
                  <duration>28</duration>
                  <rate>
                     <timebase>30</timebase>
                     <ntsc>TRUE</ntsc>
                  </rate>
                  <start>273</start>
                  <end>281</end>
                  <in>0</in>
                  <out>8</out>
                  <file id="file-007"/>
                  <sourcetrack>
                     <mediatype>audio</mediatype>
                     <trackindex>1</trackindex>
                  </sourcetrack>
               </clipitem>
               <clipitem id="clipitem-002" premiereChannelType="stereo">
                  <masterclipid>masterclip-007</masterclipid>
                  <name>sub001.mp4</name>
                  <enabled>TRUE</enabled>
                  <duration>28</duration>
                  <rate>
                     <timebase>30</timebase>
                     <ntsc>TRUE</ntsc>
                  </rate>
                  <start>276</start>
                  <end>284</end>
                  <in>0</in>
                  <out>8</out>
                  <file id="file-007"/>
                  <sourcetrack>
                     <mediatype>audio</mediatype>
                     <trackindex>1</trackindex>
                  </sourcetrack>
               </clipitem>
               <clipitem id="clipitem-002" premiereChannelType="stereo">
                  <masterclipid>masterclip-007</masterclipid>
                  <name>sub001.mp4</name>
                  <enabled>TRUE</enabled>
                  <duration>28</duration>
                  <rate>
                     <timebase>30</timebase>
                     <ntsc>TRUE</ntsc>
                  </rate>
                  <start>280</start>
                  <end>288</end>
                  <in>0</in>
                  <out>8</out>
                  <file id="file-007"/>
                  <sourcetrack>
                     <mediatype>audio</mediatype>
                     <trackindex>1</trackindex>
                  </sourcetrack>
               </clipitem>
               <clipitem id="clipitem-002" premiereChannelType="stereo">
                  <masterclipid>masterclip-007</masterclipid>
                  <name>sub001.mp4</name>
                  <enabled>TRUE</enabled>
                  <duration>28</duration>
                  <rate>
                     <timebase>30</timebase>
                     <ntsc>TRUE</ntsc>
                  </rate>
                  <start>293</start>
                  <end>301</end>
                  <in>0</in>
                  <out>8</out>
                  <file id="file-007"/>
                  <sourcetrack>
                     <mediatype>audio</mediatype>
                     <trackindex>1</trackindex>
                  </sourcetrack>
               </clipitem>
               <clipitem id="clipitem-002" premiereChannelType="stereo">
                  <masterclipid>masterclip-007</masterclipid>
                  <name>sub001.mp4</name>
                  <enabled>TRUE</enabled>
                  <duration>28</duration>
                  <rate>
                     <timebase>30</timebase>
                     <ntsc>TRUE</ntsc>
                  </rate>
                  <start>306</start>
                  <end>314</end>
                  <in>0</in>
                  <out>8</out>
                  <file id="file-007"/>
                  <sourcetrack>
                     <mediatype>audio</mediatype>
                     <trackindex>1</trackindex>
                  </sourcetrack>
               </clipitem>
               <clipitem id="clipitem-002" premiereChannelType="stereo">
                  <masterclipid>masterclip-007</masterclipid>
                  <name>sub001.mp4</name>
                  <enabled>TRUE</enabled>
                  <duration>28</duration>
                  <rate>
                     <timebase>30</timebase>
                     <ntsc>TRUE</ntsc>
                  </rate>
                  <start>319</start>
                  <end>327</end>
                  <in>0</in>
                  <out>8</out>
                  <file id="file-007"/>
                  <sourcetrack>
                     <mediatype>audio</mediatype>
                     <trackindex>1</trackindex>
                  </sourcetrack>
               </clipitem>
               <clipitem id="clipitem-002" premiereChannelType="stereo">
                  <masterclipid>masterclip-007</masterclipid>
                  <name>sub001.mp4</name>
                  <enabled>TRUE</enabled>
                  <duration>28</duration>
                  <rate>
                     <timebase>30</timebase>
                     <ntsc>TRUE</ntsc>
                  </rate>
                  <start>325</start>
                  <end>333</end>
                  <in>0</in>
                  <out>8</out>
                  <file id="file-007"/>
                  <sourcetrack>
                     <mediatype>audio</mediatype>
                     <trackindex>1</trackindex>
                  </sourcetrack>
               </clipitem>
               <clipitem id="clipitem-002" premiereChannelType="stereo">
                  <masterclipid>masterclip-007</masterclipid>
                  <name>sub001.mp4</name>
                  <enabled>TRUE</enabled>
                  <duration>28</duration>
                  <rate>
                     <timebase>30</timebase>
                     <ntsc>TRUE</ntsc>
                  </rate>
                  <start>332</start>
                  <end>340</end>
                  <in>0</in>
                  <out>8</out>
                  <file id="file-007"/>
                  <sourcetrack>
                     <mediatype>audio</mediatype>
                     <trackindex>1</trackindex>
                  </sourcetrack>
               </clipitem>
               <clipitem id="clipitem-002" premiereChannelType="stereo">
                  <masterclipid>masterclip-007</masterclipid>
                  <name>sub001.mp4</name>
                  <enabled>TRUE</enabled>
                  <duration>28</duration>
                  <rate>
                     <timebase>30</timebase>
                     <ntsc>TRUE</ntsc>
                  </rate>
                  <start>345</start>
                  <end>353</end>
                  <in>0</in>
                  <out>8</out>
                  <file id="file-007"/>
                  <sourcetrack>
                     <mediatype>audio</mediatype>
                     <trackindex>1</trackindex>
                  </sourcetrack>
               </clipitem>
               <clipitem id="clipitem-002" premiereChannelType="stereo">
                  <masterclipid>masterclip-007</masterclipid>
                  <name>sub001.mp4</name>
                  <enabled>TRUE</enabled>
                  <duration>28</duration>
                  <rate>
                     <timebase>30</timebase>
                     <ntsc>TRUE</ntsc>
                  </rate>
                  <start>358</start>
                  <end>366</end>
                  <in>0</in>
                  <out>8</out>
                  <file id="file-007"/>
                  <sourcetrack>
                     <mediatype>audio</mediatype>
                     <trackindex>1</trackindex>
                  </sourcetrack>
               </clipitem>
               <clipitem id="clipitem-002" premiereChannelType="stereo">
                  <masterclipid>masterclip-007</masterclipid>
                  <name>sub001.mp4</name>
                  <enabled>TRUE</enabled>
                  <duration>28</duration>
                  <rate>
                     <timebase>30</timebase>
                     <ntsc>TRUE</ntsc>
                  </rate>
                  <start>371</start>
                  <end>379</end>
                  <in>0</in>
                  <out>8</out>
                  <file id="file-007"/>
                  <sourcetrack>
                     <mediatype>audio</mediatype>
                     <trackindex>1</trackindex>
                  </sourcetrack>
               </clipitem>
               <clipitem id="clipitem-002" premiereChannelType="stereo">
                  <masterclipid>masterclip-007</masterclipid>
                  <name>sub001.mp4</name>
                  <enabled>TRUE</enabled>
                  <duration>28</duration>
                  <rate>
                     <timebase>30</timebase>
                     <ntsc>TRUE</ntsc>
                  </rate>
                  <start>374</start>
                  <end>382</end>
                  <in>0</in>
                  <out>8</out>
                  <file id="file-007"/>
                  <sourcetrack>
                     <mediatype>audio</mediatype>
                     <trackindex>1</trackindex>
                  </sourcetrack>
               </clipitem>
               <clipitem id="clipitem-002" premiereChannelType="stereo">
                  <masterclipid>masterclip-007</masterclipid>
                  <name>sub001.mp4</name>
                  <enabled>TRUE</enabled>
                  <duration>28</duration>
                  <rate>
                     <timebase>30</timebase>
                     <ntsc>TRUE</ntsc>
                  </rate>
                  <start>377</start>
                  <end>385</end>
                  <in>0</in>
                  <out>8</out>
                  <file id="file-007"/>
                  <sourcetrack>
                     <mediatype>audio</mediatype>
                     <trackindex>1</trackindex>
                  </sourcetrack>
               </clipitem>
               <clipitem id="clipitem-002" premiereChannelType="stereo">
                  <masterclipid>masterclip-007</masterclipid>
                  <name>sub001.mp4</name>
                  <enabled>TRUE</enabled>
                  <duration>28</duration>
                  <rate>
                     <timebase>30</timebase>
                     <ntsc>TRUE</ntsc>
                  </rate>
                  <start>381</start>
                  <end>389</end>
                  <in>0</in>
                  <out>8</out>
                  <file id="file-007"/>
                  <sourcetrack>
                     <mediatype>audio</mediatype>
                     <trackindex>1</trackindex>
                  </sourcetrack>
               </clipitem>
               <clipitem id="clipitem-002" premiereChannelType="stereo">
                  <masterclipid>masterclip-007</masterclipid>
                  <name>sub001.mp4</name>
                  <enabled>TRUE</enabled>
                  <duration>28</duration>
                  <rate>
                     <timebase>30</timebase>
                     <ntsc>TRUE</ntsc>
                  </rate>
                  <start>384</start>
                  <end>392</end>
                  <in>0</in>
                  <out>8</out>
                  <file id="file-007"/>
                  <sourcetrack>
                     <mediatype>audio</mediatype>
                     <trackindex>1</trackindex>
                  </sourcetrack>
               </clipitem>
               <clipitem id="clipitem-002" premiereChannelType="stereo">
                  <masterclipid>masterclip-007</masterclipid>
                  <name>sub001.mp4</name>
                  <enabled>TRUE</enabled>
                  <duration>28</duration>
                  <rate>
                     <timebase>30</timebase>
                     <ntsc>TRUE</ntsc>
                  </rate>
                  <start>397</start>
                  <end>405</end>
                  <in>0</in>
                  <out>8</out>
                  <file id="file-007"/>
                  <sourcetrack>
                     <mediatype>audio</mediatype>
                     <trackindex>1</trackindex>
                  </sourcetrack>
               </clipitem>
               <clipitem id="clipitem-002" premiereChannelType="stereo">
                  <masterclipid>masterclip-007</masterclipid>
                  <name>sub001.mp4</name>
                  <enabled>TRUE</enabled>
                  <duration>28</duration>
                  <rate>
                     <timebase>30</timebase>
                     <ntsc>TRUE</ntsc>
                  </rate>
                  <start>410</start>
                  <end>418</end>
                  <in>0</in>
                  <out>8</out>
                  <file id="file-007"/>
                  <sourcetrack>
                     <mediatype>audio</mediatype>
                     <trackindex>1</trackindex>
                  </sourcetrack>
               </clipitem>
               <clipitem id="clipitem-002" premiereChannelType="stereo">
                  <masterclipid>masterclip-007</masterclipid>
                  <name>sub001.mp4</name>
                  <enabled>TRUE</enabled>
                  <duration>28</duration>
                  <rate>
                     <timebase>30</timebase>
                     <ntsc>TRUE</ntsc>
                  </rate>
                  <start>423</start>
                  <end>431</end>
                  <in>0</in>
                  <out>8</out>
                  <file id="file-007"/>
                  <sourcetrack>
                     <mediatype>audio</mediatype>
                     <trackindex>1</trackindex>
                  </sourcetrack>
               </clipitem>
               <enabled>TRUE</enabled>
               <locked>FALSE</locked>
               <outputchannelindex>1</outputchannelindex>
            </track>
         </audio>
      </media>
      <timecode>
         <rate>
            <timebase>30</timebase>
            <ntsc>TRUE</ntsc>
         </rate>
         <string>00;00;00;00</string>
         <frame>0</frame>
         <displayformat>DF</displayformat>
      </timecode>
   </sequence>
</xmeml><!--感谢“玄武子元”大佬2019年1月充电支持！感谢Sherlock酱陪我唠嗑！-->